<?xml version="1.0" encoding="utf-8"?>
<!-- Generator: Adobe Illustrator 15.0.2, SVG Export Plug-In  -->
<!DOCTYPE svg PUBLIC "-//W3C//DTD SVG 1.1//EN" "http://www.w3.org/Graphics/SVG/1.1/DTD/svg11.dtd" [
	<!ENTITY ns_flows "http://ns.adobe.com/Flows/1.0/">
]>
<svg version="1.1"
	 xmlns="http://www.w3.org/2000/svg" xmlns:xlink="http://www.w3.org/1999/xlink" xmlns:a="http://ns.adobe.com/AdobeSVGViewerExtensions/3.0/"
	 x="0px" y="0px" width="207px" height="243px" viewBox="-0.004 0.004 207 243"
	 overflow="visible" enable-background="new -0.004 0.004 207 243" xml:space="preserve">
<defs>
</defs>
<path fill="#FFFFFF" d="M39.62,64.75c0.011,1.011-0.3,2.67-0.829,4.471c-0.771,2.72-1.98,5.829-3.021,8.31
	c-0.52,1.24-1,2.32-1.36,3.13c-0.18,0.4-0.34,0.74-0.449,0.99c-0.051,0.11-0.091,0.2-0.12,0.27c-2.72,3.771-5.72,7.771-8.04,10.841
	c-1.17,1.539-2.16,2.85-2.86,3.77c-0.71,0.92-1.12,1.45-1.12,1.45l1.01,0.78c-0.71,0.529-1.33,1-1.83,1.369
	c-0.45,0.33-0.8,0.591-1.05,0.771c-0.24,0.18-0.37,0.27-0.37,0.28l-1.44,1.04V73.53l19-10.93l2.4,1.359
	C39.57,64.07,39.63,64.35,39.62,64.75z"/>
<path fill="#FFFFFF" d="M101.62,25.51l14.841,8.52c-0.69-0.02-1.381-0.03-2.07-0.03c-11.01,0-21.85,2.04-29.98,4.07
	c-3.64,0.92-6.739,1.82-9.05,2.55L101.62,25.51z"/>
<path fill="#FFFFFF" d="M185.09,118.33v41.96l-11.221,9.271l-0.02,0.02c-9.22,8.03-21.98,13.601-32.41,17.08
	c-5.21,1.75-9.85,2.98-13.17,3.78c-1.66,0.399-3,0.689-3.91,0.88c-0.46,0.09-0.81,0.16-1.05,0.21l-0.12,0.02
	c-3.439-0.289-8.45-0.39-13.689-0.39c-8.15,0-16.801,0.23-20.5,0.34c-0.03-0.1-0.061-0.189-0.091-0.279
	c-0.319-0.841-0.81-1.591-1.399-2.36c-0.681-0.87-1.51-1.75-2.44-2.64l39.95,1.71l0.16-3.631l-40.17-1.71
	c-0.141-0.109-0.28-0.199-0.44-0.3c-0.51-0.33-1.16-0.67-1.939-1.069c-2.34-1.171-5.92-2.74-9.78-4.36
	c-3.53-1.51-7.3-3.05-10.521-4.34c1.511,0.21,3.051,0.43,4.561,0.67c3.26,0.51,6.38,1.12,8.71,1.76c1.16,0.32,2.12,0.66,2.76,0.95
	c0.311,0.149,0.54,0.29,0.65,0.38l0.06,0.04l0.4,0.82l1.02,0.08c0.03,0,19.91,1.619,33.301,1.619c3.35,0,6.289-0.1,8.5-0.369
	c1.119-0.141,2.029-0.301,2.84-0.591c0.41-0.149,0.8-0.33,1.21-0.67c0.2-0.17,0.41-0.399,0.58-0.71c0.17-0.3,0.29-0.7,0.279-1.09
	h-2.26l-0.229-0.12l-0.011-0.01l-0.31-0.35l-0.26-0.37l-0.08-0.16l-0.021,0.01c-0.1,0.05-0.47,0.18-0.979,0.28
	c-0.88,0.17-2.2,0.31-3.78,0.39c-1.59,0.09-3.45,0.13-5.479,0.13c-6.561,0-14.83-0.399-21.44-0.8c-3.3-0.2-6.2-0.41-8.26-0.56
	c-1.04-0.07-1.86-0.13-2.431-0.181l-0.119-0.01c-0.171-0.149-0.341-0.28-0.521-0.41c-0.86-0.59-1.9-1-3.15-1.41
	c-2.17-0.699-4.979-1.3-8.029-1.84c-6.391-1.12-13.79-1.93-17.65-2.31c0.4-0.561,0.89-1.09,1.45-1.59
	c1.72-1.521,4.13-2.73,6.52-3.59c-0.239,0.369-0.47,0.75-0.68,1.149l-1.18,2.18l2.43,0.471c0.03,0,13.24,2.54,29.62,4.359h0.01
	l0.021,0.011c0.26,0.04,1.89,0.25,4.79,0.25c5.399,0,15.189-0.761,28.64-4.851l-1.05-3.47c-13.11,3.979-22.53,4.689-27.59,4.689
	c-1.45,0-2.54-0.05-3.25-0.109c-0.36-0.03-0.63-0.061-0.801-0.08l-0.18-0.021H90.9v-0.01h-0.04l-0.04-0.01
	c-8.13-0.9-15.479-1.98-20.81-2.84c-2.41-0.391-4.4-0.73-5.851-0.99c0.971-1.11,2.101-1.95,3.33-2.6
	c0.37-0.061,0.67-0.11,0.891-0.141c0.14-0.02,0.25-0.029,0.31-0.04l0.08-0.01h0.021l-0.051-0.42c1.16-0.49,2.37-0.84,3.59-1.06
	c1.57-0.301,3.141-0.41,4.54-0.41c1.511,0,2.841,0.12,3.771,0.239c0.46,0.061,0.83,0.131,1.08,0.171c0.12,0.02,0.21,0.04,0.27,0.05
	l0.061,0.01l0.01,0.01h0.01l0.181,0.04h0.189c0.21,0,0.42,0,0.62,0c12.79,0,23.08-2.83,30.18-5.66
	c7.101-2.84,11.021-5.689,11.11-5.76l0.21-0.149l0.15-0.19c1.739-2.21,2.93-4.18,3.699-5.96c0.78-1.771,1.131-3.37,1.131-4.811
	c0-1.439-0.36-2.699-0.921-3.71c-0.84-1.52-2.05-2.449-3.02-3.01c-0.97-0.569-1.73-0.78-1.84-0.81l-0.601-0.16l-0.569,0.24
	c-5.561,2.31-8.641,4.229-10.41,5.67c-1.15,0.93-1.76,1.68-2.07,2.21c-3.55,2.67-6.81,3.49-9.72,3.5
	c-2.96,0.01-5.57-0.91-7.43-1.851c-0.33-0.159-0.631-0.33-0.91-0.479l8.029-5.92l24.601-18.03c6.53-3.14,12.31-4.27,17.32-4.27
	c7.22,0,12.869,2.359,16.75,4.729c1.939,1.18,3.42,2.37,4.409,3.24c0.49,0.439,0.87,0.8,1.11,1.05c0.12,0.12,0.21,0.21,0.26,0.271
	l0.061,0.069l0.01,0.01l0.54,0.62h0.82c0.13,0,0.26,0,0.39,0c10.33-0.01,15.58-0.71,18.45-1.5
	C184.9,118.39,185,118.36,185.09,118.33z"/>
<path fill="#FFFFFF" d="M185.09,73.53v40.95c-0.511,0.229-1.7,0.649-3.91,0.99c-2.84,0.439-7.37,0.81-14.44,0.819
	c-0.939-0.95-3-2.83-6.1-4.729c-4.29-2.62-10.62-5.261-18.64-5.261c-2.171,0-4.46,0.19-6.87,0.641c4.899-3.71,7.989-8.09,9.89-11.76
	c1.68-3.25,2.46-5.96,2.78-7.28c8.609-5.15,17.189-9.271,23.649-12.12c3.32-1.46,6.08-2.59,8.011-3.34
	c0.96-0.38,1.72-0.67,2.229-0.87h0.01L185.09,73.53z"/>
<path fill="#FFFFFF" d="M185.09,165v4.57L101.62,217.6L18.14,169.57v-66.73l1.3,1.16c1.28,1.141,2.78,1.9,4.34,2.36
	c1.56,0.46,3.18,0.63,4.8,0.63c2.62,0,5.21-0.46,7.49-1.03c2.13-0.54,3.99-1.189,5.28-1.68c2.04-0.16,3.96-0.66,5.7-1.32
	c1.819-0.699,3.45-1.569,4.819-2.42c2.311-1.42,3.881-2.8,4.36-3.24C73.1,87.04,88.291,86.02,93.63,86.03
	c0.68,0,1.189,0.01,1.54,0.03c0.109,0.01,0.199,0.01,0.27,0.01c3.55,1.38,5.63,2.82,6.771,4.05c0.59,0.63,0.93,1.2,1.14,1.72
	c0.21,0.511,0.29,0.971,0.29,1.4c0,0.82-0.29,1.59-0.62,2.17c-0.08,0.14-0.16,0.271-0.229,0.38c-3.12,0.44-5.48,0.601-7.25,0.601
	c-2.171,0-3.431-0.23-4.061-0.42c-0.29-0.08-0.46-0.16-0.52-0.181l-0.021-0.01l-0.3-0.28L90.08,95.43
	c-1.02-0.12-2.01-0.181-2.949-0.181c-3.46-0.01-6.41,0.811-8.811,2.05c-3.609,1.86-6,4.61-7.49,6.87
	c-1.489,2.271-2.109,4.07-2.14,4.17l-0.74,2.171l14.681,1.409l30.56,2.891l0.17-0.021c1.91-0.17,3.71-0.439,5.431-0.779l-20.86,15.3
	L86,138.11l1.739,1.479c0.08,0.07,1.38,1.171,3.59,2.29c2.211,1.101,5.351,2.23,9.061,2.23c3.729,0.01,8.02-1.17,12.26-4.51
	l0.45-0.351l0.11-0.399l0.01-0.021c0.109-0.16,0.609-0.84,2.14-1.92c1.5-1.05,3.98-2.479,7.96-4.18c0.4,0.18,0.96,0.5,1.42,0.96
	c0.32,0.31,0.61,0.689,0.82,1.14c0.2,0.46,0.34,1,0.35,1.72c0,0.851-0.21,1.95-0.819,3.37c-0.601,1.36-1.57,3.011-3.07,4.95
	c-0.85,0.58-4.43,2.91-10.29,5.24c-6.74,2.68-16.51,5.34-28.67,5.34c-0.13,0-0.27,0-0.41,0c-0.649-0.13-2.87-0.52-5.78-0.52
	c-3.079,0.01-6.96,0.43-10.55,2.229c-2.27,0.39-6.06,1.22-9.72,2.87c-1.9,0.86-3.771,1.94-5.36,3.35c-1.59,1.41-2.92,3.17-3.58,5.33
	L47,170.86l2.229,0.189c0.01,0,0.46,0.04,1.26,0.11c0.7,0.061,1.66,0.16,2.811,0.28l-0.471,1.2c0,0,0.62,0.239,1.69,0.659
	c3.19,1.271,10.32,4.101,16.72,6.811l0.021,0.02l0.05,0.03c0.81,0.54,4.55,3.05,8.02,5.87c1.74,1.41,3.41,2.9,4.58,4.2
	c0.591,0.64,1.051,1.24,1.33,1.71c0.141,0.229,0.23,0.43,0.271,0.57l0.04,0.119l-1.5,2.67l3.22-0.109c0,0,0.72-0.03,1.97-0.061
	c3.761-0.119,12.271-0.34,20.261-0.34c5.31,0,10.409,0.101,13.619,0.391l0.24,0.029l0.24-0.05c0.06-0.01,8.31-1.479,18.99-5.06
	c10.67-3.58,23.77-9.21,33.6-17.75l0.04-0.03L185.09,165z M69.44,134.89c2.13-3.851,3.64-7.891,3.65-11.9
	c0-1.85-0.34-3.7-1.101-5.45c-0.76-1.75-1.949-3.38-3.569-4.819l-0.221-0.171c-0.069-0.039-0.949-0.609-2.359-1.18
	c-1.42-0.56-3.391-1.14-5.67-1.14c-2.021-0.01-4.301,0.479-6.471,1.84c-1.439,0.9-2.81,2.16-4.06,3.86
	c-0.23-0.37-0.5-0.75-0.811-1.141c-0.89-1.109-2.1-2.25-3.72-3.1c-1.609-0.851-3.609-1.4-5.97-1.4c-1.36,0-2.84,0.181-4.44,0.57
	l-0.14,0.04c-0.15,0.05-2,0.66-3.92,2.42c-0.96,0.88-1.92,2.06-2.65,3.59c-0.72,1.53-1.19,3.4-1.19,5.59
	c0,3.641,1.26,8.11,4.529,13.681c3.271,5.58,8.57,12.279,16.82,20.42c0.67,0.649,1.72,0.689,2.44,0.1
	c0.04-0.04,5.56-4.62,11.13-11.06C64.51,142.419,67.31,138.74,69.44,134.89z"/>
<path fill="#FFFFFF" d="M153.42,55.32l24.239,13.93c-6.13,2.431-19.229,7.99-32.409,15.94l-0.721,0.43l-0.13,0.83
	c-0.01,0.09-0.28,1.54-1.1,3.7c-0.811,2.149-2.17,5-4.37,7.899c-2.2,2.9-5.23,5.851-9.43,8.25c-4.16,2.37-9.471,4.211-16.311,4.86
	l-30.2-2.85l-9.85-0.95c0.54-0.97,1.31-2.15,2.34-3.3c1.17-1.32,2.69-2.62,4.59-3.58c1.91-0.96,4.21-1.601,7.061-1.601
	c0.689,0,1.399,0.04,2.16,0.12c0.289,0.16,0.68,0.311,1.189,0.46c1.061,0.301,2.64,0.561,5.061,0.561c2.119,0,4.88-0.2,8.489-0.74
	l0.61-0.09l0.43-0.45c0.07-0.07,0.59-0.62,1.12-1.56c0.521-0.931,1.07-2.28,1.08-3.94c0-0.87-0.17-1.82-0.55-2.77
	c-0.59-1.44-1.66-2.851-3.32-4.171c-1.66-1.319-3.91-2.56-6.939-3.72l-0.24-0.09l-0.25-0.02c-0.05,0-0.87-0.07-2.34-0.07
	c-5.811,0-21.771,1.1-39.45,11.91l-0.16,0.1l-0.14,0.13c-0.04,0.04-1.61,1.51-4.03,2.99c-2.16,1.33-4.98,2.64-7.93,3.05l-0.2-0.399
	c-0.03,0.02-0.44,0.229-1.17,0.52c-0.16,0.01-0.32,0.01-0.48,0.01c-1.22-0.01-2.439-0.17-3.68-0.569c3.59-3.12,11.43-9.801,20.85-17
	l0.04-0.021l0.03-0.03c0.09-0.079,9.03-7.439,29.58-12.579l-0.88-3.53c-20.65,5.17-30.13,12.59-30.97,13.28L55,80.29L54.98,80.31
	C41.89,90.32,31.87,99.28,31.85,99.29l-1.87,1.681l2.17,1.25c0.4,0.229,0.811,0.439,1.21,0.63c-1.569,0.31-3.21,0.51-4.78,0.51
	c-1.35,0-2.64-0.15-3.78-0.48c-0.33-0.1-0.65-0.21-0.95-0.34c2.25-1.689,5.98-4.52,9.72-7.569c2.971-2.421,5.95-4.98,8.23-7.24
	c1.149-1.141,2.12-2.2,2.85-3.181c0.37-0.5,0.68-0.979,0.92-1.479c0.12-0.24,0.221-0.49,0.3-0.771c0.21-0.149,0.48-0.34,0.79-0.56
	c3.131-2.22,11.061-7.8,18.74-12.8c3.84-2.5,7.62-4.86,10.69-6.57c1.529-0.85,2.89-1.55,3.939-2c0.53-0.229,0.99-0.399,1.33-0.51
	c0.17-0.05,0.311-0.08,0.41-0.1l0.15-0.021h0.01v-0.77l0.21-0.53l1.979-1.2c-0.27-0.45-0.72-0.78-1.119-0.94
	c-0.4-0.149-0.75-0.189-1.07-0.189c-0.66,0.01-1.22,0.15-1.851,0.35c-1.159,0.38-2.52,1.021-4.109,1.851
	c-2.771,1.45-6.18,3.51-9.76,5.79C55.46,70.94,43.16,79.78,43.14,79.79l-0.83,0.601l0.07,0.93c-0.03,0.08-0.101,0.229-0.21,0.42
	c-0.301,0.521-0.91,1.29-1.721,2.17c-1.42,1.54-3.46,3.42-5.689,5.34c-1.51,1.3-3.13,2.63-4.71,3.891
	c2.069-2.74,4.47-5.96,6.689-9.03l0.16-0.16l0.05-0.12c1.931-2.66,3.721-5.189,5.061-7.2c0.68-1.029,1.24-1.92,1.66-2.649
	c0.21-0.37,0.38-0.7,0.52-1.03l0.05-0.12L77.76,50.66l-2-3.03L42.44,69.66l0.05-0.17c0.45-1.71,0.761-3.3,0.761-4.74
	c0-0.55-0.04-1.08-0.181-1.609c2.16-1.21,6.271-3.53,10.84-6.2c3.37-1.96,6.99-4.11,10.29-6.141c3.181-1.96,6.051-3.81,8.12-5.319
	c1.021-0.38,6.29-2.26,13.73-4.08c7.84-1.92,18.109-3.78,28.34-3.771c3.13,0,6.26,0.17,9.32,0.57l29.239,16.86l0.21,0.12l0.021,0.02
	L153.42,55.32z"/>
<path d="M206.87,181.25v1.04L103.43,243.1L0,182.29V60.81L103.43,0L206.87,60.81V181.25z M205.05,181.25V61.85L103.43,2.11
	L1.81,61.85V181.25l101.62,59.74L205.05,181.25z"/>
<polygon points="205.05,61.85 205.05,181.25 204.13,179.69 203.24,180.209 203.24,62.89 103.43,4.21 3.62,62.89 3.62,180.22 
	103.43,238.89 203.24,180.209 203.24,181.25 205.05,181.25 103.43,240.99 1.81,181.25 1.81,61.85 103.43,2.11 "/>
<polygon points="204.13,179.69 205.05,181.25 203.24,181.25 203.24,180.209 "/>
<path d="M203.24,62.89v117.319l-99.81,58.681L3.62,180.22V62.89l99.81-58.68L203.24,62.89z M188.72,171.669V162v-0.85v-45.87v-0.04
	V71.43l-2.55-1.471l-3.4-1.949L155.14,52.12l-0.19-0.1l-27.59-16.94l-0.34-0.06c-0.72-0.13-1.42-0.23-2.1-0.32L101.62,21.32
	L14.51,71.43v100.239l87.109,50.11L188.72,171.669z"/>
<path d="M188.72,162v9.67l-87.101,50.11l-87.109-50.11V71.43l87.109-50.11L124.92,34.7c-0.13-0.02-0.25-0.03-0.37-0.05l-0.01-0.01
	c-1.36-0.18-2.73-0.32-4.11-0.42L101.62,23.41L16.33,72.48v98.14l85.29,49.07l85.29-49.07v-7.12L188.72,162z"/>
<polygon points="188.72,161.15 188.72,162 186.91,163.5 186.91,161.15 "/>
<path d="M188.72,115.28v45.87h-1.811v-43.53c0.32-0.16,0.591-0.34,0.82-0.53c0.311-0.26,0.561-0.55,0.73-0.869
	C188.64,115.9,188.72,115.549,188.72,115.28z"/>
<polygon points="188.72,115.24 188.72,115.28 186.91,115.24 "/>
<polygon points="188.72,71.43 188.72,115.24 186.91,115.22 186.91,72.48 183.93,70.77 186.17,69.959 "/>
<polygon points="188.72,115.24 186.91,115.24 186.91,115.22 "/>
<path d="M186.91,115.24l1.811,0.04c0,0.27-0.08,0.62-0.26,0.94c-0.17,0.319-0.42,0.609-0.73,0.869c-0.229,0.19-0.5,0.37-0.82,0.53
	V115.24z"/>
<path d="M186.91,163.5v7.12l-85.29,49.07l-85.29-49.07V72.48l85.29-49.07l18.811,10.81c-1.32-0.1-2.64-0.16-3.97-0.19l-14.841-8.52
	L75.36,40.62c-2.83,0.9-4.479,1.521-4.51,1.53l-0.23,0.09l-0.199,0.14c-1.95,1.431-4.87,3.32-8.12,5.33
	C57.41,50.72,51.75,54.02,47.32,56.56c-2.22,1.27-4.12,2.35-5.479,3.109c-0.681,0.38-1.21,0.69-1.58,0.891
	c-0.37,0.21-0.57,0.319-0.57,0.319l-2.82,1.57l0.271,0.15l-19,10.93v28.69l-0.38,0.279l0.38,0.34v66.73l83.479,48.03l83.471-48.03
	V165L186.91,163.5z"/>
<polygon points="186.91,161.15 186.91,163.5 185.09,165 185.09,161.15 "/>
<path d="M186.91,117.62v43.53h-1.819V165l-8.86,7.32l-1.189-1.37l1.149,1.4c-9.83,8.54-22.93,14.17-33.6,17.75
	c-10.681,3.58-18.931,5.05-18.99,5.06l-0.24,0.05l-0.24-0.029c-3.21-0.29-8.31-0.391-13.619-0.391c-7.99,0-16.5,0.221-20.261,0.34
	c-1.25,0.03-1.97,0.061-1.97,0.061l-3.22,0.109l1.5-2.67l0.01,0.03v0.03v0.01H86l-0.37-0.21l-0.08,0.14l-0.04-0.119
	c-0.04-0.141-0.13-0.341-0.271-0.57c-0.279-0.47-0.739-1.07-1.33-1.71c-1.17-1.3-2.84-2.79-4.58-4.2c-3.47-2.82-7.21-5.33-8.02-5.87
	l-0.05-0.03l0.18,0.07l0.01,0.01c3.101,1.301,6.03,2.57,8.19,3.59c1.08,0.511,1.97,0.961,2.56,1.301c0.25,0.14,0.45,0.26,0.57,0.34
	l0.35,0.7l1.95,0.08c0.931,0.89,1.76,1.77,2.44,2.64c0.59,0.77,1.08,1.52,1.399,2.36c0.03,0.09,0.061,0.18,0.091,0.279
	c-1.181,0.04-1.851,0.061-1.851,0.061l0.061,1.819l1.58,0.881c0.279-0.49,0.399-1.051,0.399-1.561c0-0.43-0.08-0.83-0.189-1.2
	c3.699-0.109,12.35-0.34,20.5-0.34c5.239,0,10.25,0.101,13.689,0.39l-0.14,0.021l-0.08,0.02l0.31,1.79l0.17-1.81l-0.26-0.021
	l0.12-0.02c0.24-0.05,0.59-0.12,1.05-0.21c0.91-0.19,2.25-0.48,3.91-0.88c3.32-0.8,7.96-2.03,13.17-3.78
	c10.43-3.479,23.19-9.05,32.41-17.08l0.02-0.02l11.221-9.271v-41.96C185.85,118.11,186.44,117.879,186.91,117.62z"/>
<path d="M186.91,115.24v2.38c-0.47,0.26-1.06,0.49-1.819,0.71v-3.09H186.91z"/>
<polygon points="186.91,115.22 186.91,115.24 185.09,115.24 185.09,115.19 186.62,115.23 186.58,115.209 "/>
<path d="M186.91,72.48v42.74l-0.33-0.011l-0.63-0.34l-0.529-0.59l-0.011,0.02l-0.02,0.011c-0.04,0.029-0.14,0.09-0.3,0.17V73.53
	l-3.391-1.96c0.261-0.09,0.45-0.16,0.58-0.21s0.2-0.07,0.2-0.07l1.45-0.52L186.91,72.48z"/>
<polygon points="186.62,115.23 185.09,115.19 186.58,115.209 "/>
<path d="M186.58,115.209l-1.489-0.02c0.01-0.271,0.09-0.521,0.18-0.69l0.68,0.37L186.58,115.209z"/>
<polygon points="186.17,69.959 183.93,70.77 181.86,69.58 182.77,68.01 "/>
<path d="M185.42,114.28l0.529,0.59l-0.68-0.37c0.05-0.109,0.11-0.17,0.14-0.2L185.42,114.28z"/>
<path d="M185.39,114.31l0.02-0.011c-0.029,0.03-0.09,0.091-0.14,0.2c-0.09,0.17-0.17,0.42-0.18,0.69v-0.71
	C185.25,114.4,185.35,114.339,185.39,114.31z"/>
<path d="M164.6,119.299l-0.01-0.01l-0.061-0.069c-0.05-0.061-0.14-0.15-0.26-0.271c-0.24-0.25-0.62-0.61-1.11-1.05
	c-0.989-0.87-2.47-2.061-4.409-3.24c-3.881-2.37-9.53-4.729-16.75-4.729c-5.011,0-10.79,1.13-17.32,4.27l0.149-0.11l-1-1.38
	c2.891-0.92,5.45-2.069,7.7-3.39c1.3-0.75,2.49-1.55,3.601-2.38c2.41-0.45,4.699-0.641,6.87-0.641c8.02,0,14.35,2.641,18.64,5.261
	c3.1,1.899,5.16,3.779,6.1,4.729c-0.13,0-0.26,0-0.39,0s-0.25,0-0.38,0v1.811l1.359-1.19c-0.02-0.03-0.22-0.25-0.59-0.62
	c7.07-0.01,11.601-0.38,14.44-0.819c2.21-0.341,3.399-0.761,3.91-0.99v0.71v0.05v3.09c-0.09,0.03-0.19,0.061-0.29,0.09
	c-2.87,0.79-8.12,1.49-18.45,1.5c-0.13,0-0.26,0-0.39,0h-0.82L164.6,119.299z"/>
<path d="M183.93,70.77l-1.45,0.52c0,0-0.07,0.021-0.2,0.07s-0.319,0.12-0.58,0.21h-0.01l-0.729-0.42l0.899-1.57L183.93,70.77z"/>
<path d="M155.14,52.12l27.63,15.891l-0.91,1.569l-0.609-1.71c-0.011,0.01-0.511,0.19-1.431,0.54L154.28,53.72l-0.22-0.11l0.91-1.57
	l-29.76-17.17l-0.29-0.17c0.68,0.09,1.38,0.19,2.1,0.32l0.34,0.06l27.59,16.94L155.14,52.12z"/>
<path d="M181.25,67.87l0.609,1.71l-2.04-1.17C180.74,68.06,181.24,67.879,181.25,67.87z"/>
<path d="M181.86,69.58l-0.899,1.57l-3.301-1.9c0.87-0.35,1.591-0.63,2.16-0.84L181.86,69.58z"/>
<path d="M53.88,94.54l0.14-0.13l0.16-0.1C71.86,83.5,87.82,82.4,93.63,82.4c1.47,0,2.29,0.07,2.34,0.07l0.25,0.02l0.24,0.09
	c3.029,1.16,5.279,2.4,6.939,3.72c1.66,1.32,2.73,2.73,3.32,4.171c0.38,0.949,0.55,1.899,0.55,2.77c-0.01,1.66-0.56,3.01-1.08,3.94
	c-0.53,0.939-1.05,1.489-1.12,1.56l-0.43,0.45l-0.61,0.09c-3.609,0.54-6.37,0.74-8.489,0.74c-2.421,0-4-0.26-5.061-0.561
	c-0.51-0.149-0.9-0.3-1.189-0.46c0.109,0.011,0.22,0.03,0.34,0.04l0.229-1.8l-1.21,1.35c0.12,0.11,0.33,0.261,0.641,0.41
	c-0.761-0.08-1.471-0.12-2.16-0.12c-2.851,0-5.15,0.641-7.061,1.601c-1.899,0.96-3.42,2.26-4.59,3.58c-1.03,1.149-1.8,2.33-2.34,3.3
	l-2.561-0.25l-0.18,1.81l1.32,0.44l0.399,0.15V109.5c0.04-0.12,0.36-0.97,1.021-2.14l9.85,0.95l30.2,2.85l-0.16,0.021l0.17,1.81
	l0.17-1.81l-0.18-0.021c6.84-0.649,12.15-2.49,16.311-4.86c4.199-2.399,7.229-5.35,9.43-8.25c2.2-2.899,3.56-5.75,4.37-7.899
	c0.819-2.16,1.09-3.61,1.1-3.7l0.13-0.83l0.721-0.43c13.18-7.95,26.279-13.51,32.409-15.94l3.301,1.9l0.729,0.42
	c-0.51,0.2-1.27,0.49-2.229,0.87c-1.931,0.75-4.69,1.88-8.011,3.34c-6.46,2.85-15.04,6.97-23.649,12.12
	c0.12-0.521,0.17-0.82,0.18-0.86l-1.79-0.29l0.93,1.55c0.23-0.14,0.45-0.27,0.681-0.399c-0.32,1.32-1.101,4.03-2.78,7.28
	c-1.9,3.67-4.99,8.05-9.89,11.76c-3.79,0.68-7.86,1.97-12.16,4.05l-0.15,0.07l-4.029,2.95c-1.721,0.34-3.521,0.609-5.431,0.779
	l-0.17,0.021l-30.56-2.891L67.95,110.51l0.74-2.171c0.03-0.1,0.65-1.899,2.14-4.17c1.49-2.26,3.881-5.01,7.49-6.87
	c2.4-1.239,5.351-2.06,8.811-2.05c0.939,0,1.93,0.061,2.949,0.181L90.64,95.5l0.3,0.28l-0.02-0.01l-0.5,0.83l0.64-0.721l-0.1-0.09
	c0.06,0.021,0.229,0.101,0.52,0.181c0.63,0.189,1.89,0.42,4.061,0.42c1.77,0,4.13-0.16,7.25-0.601c-0.08,0.11-0.141,0.2-0.2,0.271
	l-0.13,0.16l-0.011,0.02l0.391,0.37l0.92,0.88l-0.271-1.8c-0.239,0.04-0.47,0.07-0.699,0.1c0.069-0.109,0.149-0.24,0.229-0.38
	c0.33-0.58,0.62-1.35,0.62-2.17c0-0.43-0.08-0.89-0.29-1.4c-0.21-0.52-0.55-1.09-1.14-1.72c-1.141-1.229-3.221-2.67-6.771-4.05
	l0.11,0.01h0.08l0.02,0.01l0.16-1.81l-0.64,1.69l0.27,0.1c-0.07,0-0.16,0-0.27-0.01c-0.351-0.021-0.86-0.03-1.54-0.03
	c-5.34-0.01-20.53,1.01-37.4,11.27l0.15-0.13l-1.25-1.31l0.939,1.54l0.16-0.101c-0.479,0.44-2.05,1.82-4.36,3.24
	c-1.369,0.851-3,1.721-4.819,2.42c-1.74,0.66-3.66,1.16-5.7,1.32l0.24-0.09h0.01c1.07-0.43,1.7-0.74,1.74-0.76l-1.42-2.851
	c2.949-0.41,5.77-1.72,7.93-3.05C52.27,96.049,53.84,94.58,53.88,94.54z"/>
<path d="M154.28,53.72l25.54,14.689c-0.569,0.21-1.29,0.49-2.16,0.84L153.42,55.32l-0.24-0.12l-0.021-0.02l0.9-1.57L154.28,53.72z"
	/>
<polygon points="175.041,170.95 176.23,172.32 176.19,172.35 "/>
<path d="M167.33,116.91l-1.359,1.19v-1.811c0.13,0,0.25,0,0.38,0s0.26,0,0.39,0C167.11,116.66,167.31,116.879,167.33,116.91z"/>
<path d="M154.97,52.04l-0.91,1.57l-27.36-16.8c-0.8-0.15-1.6-0.261-2.399-0.37l-3.87-2.22c1.38,0.1,2.75,0.24,4.11,0.42l0.01,0.01
	c0.12,0.02,0.24,0.03,0.37,0.05l0.29,0.17L154.97,52.04z"/>
<path d="M154.06,53.61l-0.9,1.57l-0.21-0.12L126.06,38.54c0.1,0.01,0.21,0.03,0.31,0.05l0.33-1.779L154.06,53.61z"/>
<path d="M152.95,55.06L123.71,38.2c0.119,0.01,0.229,0.021,0.35,0.04c0.68,0.09,1.35,0.19,2,0.3L152.95,55.06z"/>
<path d="M146.19,86.75l1.79,0.29c-0.01,0.04-0.06,0.34-0.18,0.86c-0.23,0.13-0.45,0.26-0.681,0.399L146.19,86.75z"/>
<path d="M122.97,110.99c4.3-2.08,8.37-3.37,12.16-4.05c-1.11,0.83-2.301,1.63-3.601,2.38c-2.25,1.32-4.81,2.47-7.7,3.39l-0.069-0.09
	l0.05,0.101c-1.57,0.51-3.25,0.939-5.02,1.29l4.029-2.95L122.97,110.99z"/>
<path d="M128.62,132.839c0.561,1.011,0.921,2.271,0.921,3.71c0,1.44-0.351,3.04-1.131,4.811c-0.77,1.78-1.96,3.75-3.699,5.96
	l-0.15,0.19l-0.21,0.149c-0.09,0.07-4.01,2.92-11.11,5.76c-7.1,2.83-17.39,5.66-30.18,5.66c-0.2,0-0.41,0-0.62,0H82.25l-0.181-0.04
	l0.05-0.26l-0.06,0.26l-0.01-0.01l-0.061-0.01c-0.06-0.01-0.149-0.03-0.27-0.05c-0.25-0.04-0.62-0.11-1.08-0.171
	c-0.93-0.119-2.26-0.239-3.771-0.239c-1.399,0-2.97,0.109-4.54,0.41c-1.22,0.22-2.43,0.569-3.59,1.06l-0.35-3.19
	c-0.03,0-0.72,0.08-1.811,0.271l-0.26,0.05c3.59-1.8,7.471-2.22,10.55-2.229c2.91,0,5.131,0.39,5.78,0.52h-0.18l-0.021,1.811
	l0.391-1.771c-0.011,0-0.08-0.02-0.19-0.04c0.141,0,0.28,0,0.41,0c12.16,0,21.93-2.66,28.67-5.34c5.86-2.33,9.44-4.66,10.29-5.24
	l-0.16,0.2l1.42,1.13l-0.649-0.91l-0.41-0.56c0,0-0.07,0.05-0.2,0.14c1.5-1.939,2.47-3.59,3.07-4.95
	c0.609-1.42,0.819-2.52,0.819-3.37c-0.01-0.72-0.149-1.26-0.35-1.72c-0.21-0.45-0.5-0.83-0.82-1.14c-0.46-0.46-1.02-0.78-1.42-0.96
	c0.21-0.09,0.431-0.19,0.66-0.28l-0.7-1.68l-0.22,0.83l-0.03,0.12l-0.239,0.8h0.02l0.13,0.05c0.09,0.03,0.23,0.09,0.38,0.16
	c-3.979,1.7-6.46,3.13-7.96,4.18c-1.53,1.08-2.03,1.76-2.14,1.92l0.04-0.13l-0.97-0.29l0.909,0.47l0.011-0.029l-0.11,0.399
	l-0.45,0.351c-4.24,3.34-8.53,4.52-12.26,4.51c-3.71,0-6.85-1.13-9.061-2.23c-2.21-1.119-3.51-2.22-3.59-2.29L86,138.11l11.93-8.8
	l20.86-15.3c1.77-0.351,3.449-0.78,5.02-1.29l0.74,1.54l0.13-0.061l-24.601,18.03l-8.029,5.92c-0.51-0.3-0.931-0.57-1.25-0.79
	c-0.25-0.17-0.431-0.32-0.55-0.41l-0.131-0.1l-0.029-0.021L90,136.94l-1.091,1.27l1.08,1.46l2.061-1.52
	c0.279,0.149,0.58,0.32,0.91,0.479c1.859,0.94,4.47,1.86,7.43,1.851c2.91-0.01,6.17-0.83,9.72-3.5c-0.18,0.29-0.27,0.52-0.319,0.67
	l1.739,0.52l-1.12-1.42c-0.1,0.08-0.199,0.16-0.3,0.23c0.311-0.53,0.92-1.28,2.07-2.21c1.77-1.44,4.85-3.36,10.41-5.67l0.569-0.24
	l0.601,0.16c0.109,0.029,0.87,0.24,1.84,0.81C126.57,130.39,127.78,131.32,128.62,132.839z"/>
<path d="M127.2,175.41c0.011,0.39-0.109,0.79-0.279,1.09c-0.17,0.311-0.38,0.54-0.58,0.71c-0.41,0.34-0.8,0.521-1.21,0.67
	c-0.811,0.29-1.721,0.45-2.84,0.591c-2.211,0.27-5.15,0.369-8.5,0.369c-13.391,0-33.271-1.619-33.301-1.619l-1.02-0.08l-0.4-0.82
	l0.03,0.02l0.38-0.35l-0.46,0.23l0.05,0.1l-0.06-0.04c-0.11-0.09-0.34-0.23-0.65-0.38c-0.64-0.29-1.6-0.63-2.76-0.95
	c-2.33-0.64-5.45-1.25-8.71-1.76c-1.51-0.24-3.05-0.46-4.561-0.67c-0.72-0.3-1.409-0.58-2.069-0.84c-3.59-1.44-6.11-2.42-6.11-2.42
	l-0.85,2.18c-1.15-0.12-2.11-0.22-2.811-0.28c-0.8-0.07-1.25-0.11-1.26-0.11L47,170.86l0.659-2.15c0.66-2.16,1.99-3.92,3.58-5.33
	c1.59-1.409,3.46-2.489,5.36-3.35c3.66-1.65,7.45-2.48,9.72-2.87l-0.26,0.12l-0.01,0.01c-2.221,1.11-4.311,2.811-5.891,5.221
	c-2.39,0.859-4.8,2.069-6.52,3.59c-0.561,0.5-1.05,1.029-1.45,1.59c-1.64-0.17-2.63-0.26-2.64-0.26l-0.16,1.81l1.74,0.54
	c0.229-0.74,0.58-1.44,1.06-2.09c3.86,0.38,11.26,1.189,17.65,2.31c3.05,0.54,5.859,1.141,8.029,1.84c1.25,0.41,2.29,0.82,3.15,1.41
	c0.18,0.13,0.35,0.261,0.521,0.41c-0.49-0.03-0.75-0.06-0.75-0.06l-0.15,1.81l1.62-0.81c-0.2-0.4-0.45-0.7-0.72-0.94l0.119,0.01
	c0.57,0.051,1.391,0.11,2.431,0.181c2.06,0.149,4.96,0.359,8.26,0.56c6.61,0.4,14.88,0.8,21.44,0.8c2.029,0,3.89-0.04,5.479-0.13
	c1.58-0.08,2.9-0.22,3.78-0.39c0.51-0.101,0.88-0.23,0.979-0.28l-0.05,0.05c-0.06,0.04-0.15,0.141-0.24,0.301
	c-0.09,0.159-0.17,0.409-0.16,0.649h1.36H127.2z"/>
<path d="M126.7,36.81l-0.33,1.779c-0.1-0.02-0.21-0.04-0.31-0.05l-0.31-0.189L126.7,36.81z"/>
<path d="M126.7,36.81l-0.949,1.54l0.31,0.189c-0.65-0.109-1.32-0.21-2-0.3c-0.12-0.02-0.23-0.03-0.35-0.04l-0.32-0.189l-6.93-3.98
	c1.33,0.03,2.649,0.09,3.97,0.19l3.87,2.22C125.1,36.549,125.9,36.66,126.7,36.81z"/>
<path d="M125.18,184.299l-0.16,3.631l-39.95-1.71c-0.479-0.45-0.99-0.91-1.51-1.37l0.3-0.271l-0.39,0.19
	c-4.561-3.98-10.29-7.73-10.33-7.75l-1.99,3.029l0.09,0.061c-6.399-2.71-13.529-5.54-16.72-6.811c-1.07-0.42-1.69-0.659-1.69-0.659
	l0.471-1.2c2.41,0.26,5.64,0.62,9.029,1.08c3.221,1.29,6.99,2.83,10.521,4.34c3.86,1.62,7.44,3.189,9.78,4.36
	c0.779,0.399,1.43,0.739,1.939,1.069c0.16,0.101,0.3,0.19,0.44,0.3l-0.66-0.029l-0.08,1.819l1.62-0.81
	c-0.18-0.36-0.35-0.521-0.5-0.66c-0.13-0.12-0.25-0.229-0.38-0.32L125.18,184.299z"/>
<path d="M124.94,175.41h-1.36c-0.01-0.24,0.07-0.49,0.16-0.649l0.96,0.52l0.011,0.01L124.94,175.41z"/>
<polygon points="123.83,112.709 124.83,114.089 124.68,114.2 124.55,114.26 123.81,112.72 "/>
<path d="M124.39,174.93l0.31,0.35l-0.96-0.52c0.09-0.16,0.181-0.261,0.24-0.301L124.39,174.93z"/>
<polygon points="124.13,174.56 124.39,174.93 123.98,174.459 124.03,174.41 "/>
<polygon points="124.13,174.56 124.03,174.41 124.05,174.4 "/>
<path d="M123.28,130.77l0.7,1.68c-0.229,0.09-0.45,0.19-0.66,0.28c-0.149-0.07-0.29-0.13-0.38-0.16l-0.13-0.05l0.22-0.8l0.03-0.12
	L123.28,130.77z"/>
<polygon points="123.83,112.709 123.81,112.72 123.76,112.62 "/>
<path d="M122.76,162.61l1.05,3.47c-13.45,4.09-23.24,4.851-28.64,4.851c-2.9,0-4.53-0.21-4.79-0.25h0.04l0.199-1.801l-0.27,1.79
	c-16.38-1.819-29.59-4.359-29.62-4.359l-2.43-0.471l1.18-2.18c0.21-0.399,0.44-0.78,0.68-1.149c0.16-0.061,0.311-0.12,0.471-0.171
	c2.55-0.88,5.02-1.39,6.56-1.649c0.11-0.021,0.21-0.04,0.3-0.05c-1.229,0.649-2.359,1.489-3.33,2.6c-0.149-0.03-0.3-0.05-0.439-0.08
	c-0.75-0.13-1.32-0.24-1.71-0.31c-0.391-0.07-0.59-0.11-0.59-0.11l-0.341,1.78l1.591,0.87c0.439-0.811,0.939-1.53,1.489-2.15
	c1.45,0.26,3.44,0.6,5.851,0.99c5.33,0.859,12.68,1.939,20.81,2.84l0.04,0.01h0.04v0.01h0.04l0.18,0.021
	c0.171,0.02,0.44,0.05,0.801,0.08c0.71,0.06,1.8,0.109,3.25,0.109C100.23,167.299,109.65,166.589,122.76,162.61z"/>
<path d="M123.39,38.01l0.32,0.189c-3.061-0.4-6.19-0.57-9.32-0.57c-10.23-0.01-20.5,1.851-28.34,3.771
	c-7.44,1.82-12.71,3.7-13.73,4.08l0.24-0.17l-1.07-1.46l0.641,1.699l0.06-0.02l0.13-0.05c-2.069,1.51-4.939,3.359-8.12,5.319
	c-3.3,2.03-6.92,4.181-10.29,6.141c-4.569,2.67-8.68,4.99-10.84,6.2c-0.029-0.15-0.08-0.29-0.13-0.44
	c-0.12-0.34-0.29-0.68-0.54-0.99c-0.24-0.319-0.56-0.609-0.93-0.819l-0.9,1.58l0.88,1.579c0,0,0.591-0.329,1.62-0.909
	c0.141,0.529,0.181,1.06,0.181,1.609c0,1.44-0.311,3.03-0.761,4.74l-0.05,0.17l-1.66,1.101l0.061,0.77
	c-0.021,0.07-0.07,0.17-0.13,0.29c-0.4,0.79-1.33,2.25-2.53,4c-1.21,1.76-2.69,3.85-4.271,6.01l1.221,0.891l0.12,0.119l-0.08-0.029
	l-1.301-0.94l-0.029,0.05c0.029-0.069,0.069-0.159,0.12-0.27c0.109-0.25,0.27-0.59,0.449-0.99c0.36-0.81,0.841-1.89,1.36-3.13
	c1.04-2.48,2.25-5.59,3.021-8.31c0.529-1.801,0.84-3.46,0.829-4.471c0.011-0.399-0.05-0.68-0.079-0.79l0.14,0.08l0.24-0.42
	l-0.23,0.17l-0.17,0.11h-0.01l0.02,0.02l0.011,0.04l-2.4-1.359l38.22-21.98c2.311-0.729,5.41-1.63,9.05-2.55
	C92.541,36.04,103.38,34,114.39,34c0.689,0,1.38,0.01,2.07,0.03L123.39,38.01z"/>
<polygon points="123.45,191.57 123.28,193.379 122.97,191.589 123.05,191.57 123.19,191.549 "/>
<path d="M122.63,145.29l0.649,0.91l-1.42-1.13l0.16-0.2c0.13-0.09,0.2-0.14,0.2-0.14L122.63,145.29z"/>
<polygon points="123.03,131.72 122.81,132.52 122.791,132.52 "/>
<polygon points="113.37,111.18 113.2,112.99 113.03,111.18 113.19,111.16 "/>
<polygon points="113.26,138.7 113.22,138.83 113.21,138.839 113.21,138.85 113.2,138.879 112.291,138.41 "/>
<polygon points="113.22,138.83 113.21,138.85 113.21,138.839 "/>
<path d="M110.41,136.75l1.12,1.42l-1.739-0.52c0.05-0.15,0.14-0.38,0.319-0.67C110.21,136.91,110.31,136.83,110.41,136.75z"/>
<path d="M103.49,95.69l0.271,1.8l-0.92-0.88l-0.391-0.37l0.011-0.02l0.13-0.16c0.06-0.07,0.12-0.16,0.2-0.271
	C103.02,95.76,103.25,95.73,103.49,95.69z"/>
<polygon points="95.81,84.28 95.65,86.089 95.63,86.08 95.55,86.08 95.44,86.07 95.17,85.97 "/>
<path d="M92.05,138.15l-2.061,1.52l-1.08-1.46L90,136.94l0.09-0.11l0.029,0.021l0.131,0.1c0.119,0.09,0.3,0.24,0.55,0.41
	C91.12,137.58,91.541,137.85,92.05,138.15z"/>
<polygon points="91.06,95.879 90.42,96.6 90.92,95.77 90.94,95.78 "/>
<polygon points="91.06,95.879 90.94,95.78 90.96,95.79 "/>
<polygon points="90.62,168.879 90.42,170.68 90.38,170.68 90.36,170.669 90.35,170.669 "/>
<path d="M89.86,97.24l-0.229,1.8c-0.12-0.01-0.23-0.029-0.34-0.04c-0.311-0.149-0.521-0.3-0.641-0.41L89.86,97.24z"/>
<path d="M89,191.5c0.109,0.37,0.189,0.771,0.189,1.2c0,0.51-0.12,1.07-0.399,1.561l-1.58-0.881l-0.061-1.819
	C87.15,191.56,87.82,191.54,89,191.5z"/>
<path d="M57.31,83.089l-0.03,0.03l-0.04,0.021c-9.42,7.199-17.26,13.88-20.85,17c-0.8-0.25-1.61-0.601-2.43-1.07l-0.9,1.58
	l1.21,1.35c0,0,0.15-0.14,0.45-0.399c0.35-0.311,0.92-0.811,1.67-1.46c1.24,0.399,2.46,0.56,3.68,0.569c0.16,0,0.32,0,0.48-0.01
	c-0.08,0.03-0.17,0.07-0.271,0.1v0.011c-1.2,0.46-3.02,1.109-5.1,1.63c-0.59,0.149-1.2,0.29-1.82,0.41
	c-0.399-0.19-0.81-0.4-1.21-0.63l-2.17-1.25l1.87-1.681c0.02-0.01,10.04-8.97,23.13-18.979l1.16,1.39l-1.1-1.439
	c0.84-0.69,10.319-8.11,30.97-13.28l0.88,3.53C66.34,75.65,57.4,83.01,57.31,83.089z"/>
<polygon points="86,192.7 85.56,192.7 85.56,192.69 85.63,192.49 "/>
<path d="M85.89,183.57l-1.62,0.81l0.08-1.819l0.66,0.029c0.13,0.091,0.25,0.2,0.38,0.32C85.541,183.049,85.71,183.209,85.89,183.57z
	"/>
<polygon points="85.63,192.49 85.56,192.69 85.56,192.66 85.55,192.629 "/>
<path d="M85.07,186.22l-1.95-0.08l-0.35-0.7l0.07,0.05l0.05,0.05h0.01l0.36-0.42l0.3-0.27C84.08,185.31,84.59,185.77,85.07,186.22z"
	/>
<path d="M84.12,57.24l-1.979,1.2l-1.13,0.68c0.16,0.28,0.45,0.49,0.64,0.55c0.15,0.061,0.24,0.07,0.271,0.07l-0.15,0.021
	c-0.1,0.02-0.24,0.05-0.41,0.1c-0.34,0.11-0.8,0.28-1.33,0.51c-1.05,0.45-2.41,1.15-3.939,2c-3.07,1.71-6.851,4.07-10.69,6.57
	c-7.68,5-15.609,10.58-18.74,12.8c-0.31,0.22-0.58,0.41-0.79,0.56c0.091-0.289,0.141-0.6,0.15-0.949l-0.01-0.23L44.2,81.27
	l1.061,1.47c0,0,0.21-0.15,0.609-0.44c-0.079,0.28-0.18,0.53-0.3,0.771c-0.24,0.5-0.55,0.979-0.92,1.479
	c-0.729,0.98-1.7,2.04-2.85,3.181c-2.28,2.26-5.26,4.819-8.23,7.24c-3.74,3.05-7.47,5.88-9.72,7.569c-0.74-0.31-1.41-0.72-1.99-1.25
	l-1.21,1.351l1.06,1.47c0.01,0,0.82-0.59,2.14-1.57c0.3,0.13,0.62,0.24,0.95,0.34c1.14,0.33,2.43,0.48,3.78,0.48
	c1.57,0,3.21-0.2,4.78-0.51c2.26,1.06,4.54,1.489,6.71,1.489c0.32,0,0.65-0.01,0.971-0.029h0.01c0.1-0.011,0.2-0.011,0.3-0.03
	c-1.29,0.49-3.15,1.14-5.28,1.68c-2.279,0.57-4.87,1.03-7.49,1.03c-1.62,0-3.24-0.17-4.8-0.63c-1.56-0.46-3.06-1.22-4.34-2.36
	l-1.3-1.16v-0.619l1.44-1.04c0-0.011,0.13-0.101,0.37-0.28c0.25-0.18,0.6-0.44,1.05-0.771c0.5-0.369,1.12-0.84,1.83-1.369l1.87,1.43
	c0,0,2.32-3.01,5.35-7.05c1.58-1.261,3.2-2.591,4.71-3.891c2.229-1.92,4.27-3.8,5.689-5.34c0.811-0.88,1.42-1.649,1.721-2.17
	c0.109-0.19,0.18-0.34,0.21-0.42l0.01,0.03v0.06l0.74-0.06h-0.24L42.5,81.29l-0.03-0.01l-0.07-0.02v0.01l-0.02,0.05l-0.07-0.93
	l0.83-0.601c0.02-0.01,12.32-8.85,23.07-15.689c3.58-2.28,6.989-4.34,9.76-5.79c1.59-0.83,2.95-1.471,4.109-1.851
	c0.631-0.199,1.19-0.34,1.851-0.35c0.32,0,0.67,0.04,1.07,0.189C83.4,56.459,83.85,56.79,84.12,57.24z"/>
<polygon points="83.86,184.58 83.56,184.85 83.541,184.83 83.47,184.77 "/>
<path d="M83.541,184.83l0.02,0.021l-0.3,0.27l-0.41,0.37h-0.01c-0.04-0.06-0.11-0.14-0.2-0.3l0.83-0.42L83.541,184.83z"/>
<path d="M83.47,184.77l-0.83,0.42l0.13,0.25c-0.12-0.08-0.32-0.2-0.57-0.34c-0.59-0.34-1.479-0.79-2.56-1.301
	c-2.16-1.02-5.09-2.289-8.19-3.59l-0.01-0.01l-0.18-0.07l-0.021-0.02l-0.09-0.061l1.99-3.029
	C73.18,177.04,78.91,180.79,83.47,184.77z"/>
<polygon points="83.26,185.12 82.9,185.54 82.89,185.54 82.85,185.49 "/>
<polygon points="82.85,185.49 82.89,185.54 82.84,185.49 "/>
<path d="M82.84,155.49l-0.391,1.771l0.021-1.811h0.18C82.76,155.47,82.83,155.49,82.84,155.49z"/>
<path d="M82.84,185.49l-0.07-0.05l-0.13-0.25C82.73,185.35,82.8,185.43,82.84,185.49z"/>
<path d="M82.26,174.6l-1.62,0.81l0.15-1.81c0,0,0.26,0.029,0.75,0.06C81.81,173.9,82.06,174.2,82.26,174.6z"/>
<path d="M82.14,58.44l-0.21,0.53l-0.28,0.699c-0.189-0.06-0.479-0.27-0.64-0.55L82.14,58.44z"/>
<polygon points="82.12,158.78 82.07,159.04 82.06,159.04 "/>
<path d="M81.93,58.97v0.77h-0.01c-0.03,0-0.12-0.01-0.271-0.07L81.93,58.97z"/>
<polygon points="79.48,175.99 79.1,176.339 79.02,176.22 "/>
<polygon points="79.02,176.22 79.1,176.339 79.07,176.32 "/>
<path d="M75.76,47.629l2,3.03L44.24,72.83c0.051-0.12,0.09-0.25,0.141-0.39c0.05-0.19,0.109-0.391,0.109-0.73v-0.17l-1.81,0.141
	l1,1.52l0.56-0.37l-0.05,0.12c-0.14,0.33-0.31,0.66-0.52,1.03c-0.42,0.729-0.98,1.62-1.66,2.649c-1.34,2.011-3.13,4.54-5.061,7.2
	l0.091-0.2c0.029-0.05,0.159-0.34,0.35-0.76c0.67-1.46,2.11-4.67,3.39-8.14c0.37-0.98,0.721-1.98,1.04-2.98l0.521-0.04H41.91
	l-0.069-0.02c0.22-0.68,0.42-1.36,0.6-2.03L75.76,47.629z"/>
<path d="M75.36,40.62L37.14,62.6l-0.271-0.15l2.82-1.57c0,0,0.2-0.109,0.57-0.319c0.37-0.2,0.899-0.511,1.58-0.891
	c1.359-0.76,3.26-1.84,5.479-3.109c4.431-2.54,10.09-5.84,14.98-8.851c3.25-2.01,6.17-3.899,8.12-5.33l0.199-0.14l0.23-0.09
	C70.88,42.14,72.53,41.52,75.36,40.62z"/>
<path d="M73.14,107.36c-0.66,1.17-0.98,2.02-1.021,2.14l-0.399-0.14l-1.32-0.44l0.18-1.81L73.14,107.36z"/>
<polygon points="71.49,43.85 72.56,45.31 72.32,45.48 72.19,45.53 72.13,45.549 "/>
<path d="M73.09,122.99c-0.011,4.01-1.521,8.05-3.65,11.9c-2.13,3.85-4.93,7.529-7.72,10.75c-5.57,6.439-11.09,11.02-11.13,11.06
	c-0.721,0.59-1.771,0.55-2.44-0.1c-8.25-8.141-13.55-14.84-16.82-20.42c-3.27-5.57-4.529-10.04-4.529-13.681
	c0-2.189,0.47-4.06,1.19-5.59c0.73-1.53,1.69-2.71,2.65-3.59c1.92-1.76,3.77-2.37,3.92-2.42l0.14-0.04
	c1.601-0.39,3.08-0.57,4.44-0.57c2.36,0,4.36,0.55,5.97,1.4c1.62,0.85,2.83,1.99,3.72,3.1c0.311,0.391,0.58,0.771,0.811,1.141
	c-0.38,0.51-0.75,1.069-1.1,1.67c-1.521-2.75-5.23-6.971-13.41-4.98c0,0-21.78,7.12,14.3,42.68c0,0,33.13-27.539,17.78-41.229
	c0,0-9.91-6.45-16.601,3.66c-0.229-0.521-0.55-1.141-0.97-1.8c1.25-1.7,2.62-2.96,4.06-3.86c2.17-1.36,4.45-1.85,6.471-1.84
	c2.279,0,4.25,0.58,5.67,1.14c1.41,0.57,2.29,1.141,2.359,1.18l0.221,0.171c1.62,1.439,2.81,3.069,3.569,4.819
	C72.75,119.29,73.09,121.14,73.09,122.99z"/>
<polygon points="72.12,109.5 72.12,109.51 71.72,109.36 "/>
<path d="M66.27,133.129c1.97-3.529,3.2-7.069,3.19-10.14c0-1.42-0.25-2.75-0.801-4c-0.529-1.2-1.34-2.36-2.55-3.46l0.03,0.02
	l0.07,0.04l0.01,0.011h0.01l0.34-0.54l0.641-0.99c15.35,13.69-17.78,41.229-17.78,41.229l1.27-1.289
	c-0.399-0.391-0.79-0.79-1.18-1.181c0.21-0.189,0.45-0.41,0.71-0.64c1.22-1.11,2.92-2.71,4.811-4.641
	C58.82,143.68,63.33,138.44,66.27,133.129z"/>
<path fill="#FF0000" d="M69.46,122.99c0.01,3.07-1.221,6.61-3.19,10.14c-2.94,5.311-7.45,10.551-11.229,14.42
	c-1.891,1.931-3.591,3.53-4.811,4.641c-0.26,0.229-0.5,0.45-0.71,0.64c-7.41-7.439-12.17-13.55-15.06-18.479
	c-3.061-5.2-4.03-9.07-4.03-11.851c0-1.68,0.34-2.979,0.84-4.04c0.74-1.569,1.87-2.6,2.82-3.26c0.479-0.32,0.899-0.55,1.2-0.68
	c0.13-0.061,0.229-0.11,0.3-0.141c1.34-0.319,2.52-0.46,3.55-0.46c1.81,0,3.18,0.4,4.28,0.98c1.64,0.87,2.72,2.189,3.38,3.34
	c0.34,0.56,0.56,1.08,0.7,1.44c0.069,0.18,0.109,0.319,0.14,0.409l0.03,0.091v0.01c0.189,0.729,0.8,1.26,1.55,1.35
	s1.479-0.3,1.82-0.97c1.449-2.82,3.05-4.46,4.59-5.42s3.069-1.29,4.54-1.29c1.649,0,3.199,0.43,4.319,0.88
	c0.561,0.23,1.011,0.45,1.311,0.62c0.13,0.07,0.24,0.12,0.31,0.17c1.21,1.1,2.021,2.26,2.55,3.46
	C69.21,120.24,69.46,121.57,69.46,122.99z"/>
<path d="M68.74,160.03l0.051,0.42H68.77l-0.08,0.01c-0.06,0.011-0.17,0.021-0.31,0.04c-0.221,0.03-0.521,0.08-0.891,0.141
	l0.221-0.12l0.01-0.01C68.05,160.339,68.39,160.169,68.74,160.03z"/>
<path d="M68.39,156.839l0.35,3.19c-0.35,0.14-0.689,0.31-1.02,0.48l-0.01,0.01l-0.221,0.12c-0.09,0.01-0.189,0.029-0.3,0.05
	c-1.54,0.26-4.01,0.77-6.56,1.649c-0.16,0.051-0.311,0.11-0.471,0.171c1.58-2.41,3.67-4.11,5.891-5.221l0.84,1.61l-0.83-1.62
	l0.26-0.12l0.26-0.05C67.67,156.919,68.36,156.839,68.39,156.839z"/>
<polygon points="67.21,114.07 66.57,115.06 66.22,115.6 66.21,115.589 66.14,115.549 66.11,115.53 66,115.43 "/>
<path d="M67.21,114.07L66,115.43l0.109,0.1c-0.069-0.05-0.18-0.1-0.31-0.17c-0.3-0.17-0.75-0.39-1.311-0.62
	c-1.12-0.45-2.67-0.88-4.319-0.88c-1.471,0-3,0.33-4.54,1.29s-3.141,2.6-4.59,5.42l-1.61-0.83l1.76-0.45
	c-0.03-0.08-0.18-0.689-0.58-1.56C57.3,107.62,67.21,114.07,67.21,114.07z"/>
<polygon points="66.06,157.28 66.89,158.9 66.05,157.29 "/>
<polygon points="66.57,115.06 66.23,115.6 66.22,115.6 "/>
<path d="M63.72,163.16c0.14,0.03,0.29,0.05,0.439,0.08c-0.55,0.62-1.05,1.34-1.489,2.15l-1.591-0.87l0.341-1.78
	c0,0,0.199,0.04,0.59,0.11C62.4,162.919,62.97,163.03,63.72,163.16z"/>
<path d="M60.26,171.68c0.66,0.26,1.35,0.54,2.069,0.84c-3.39-0.46-6.619-0.82-9.029-1.08l0.85-2.18
	C54.15,169.26,56.67,170.24,60.26,171.68z"/>
<polygon points="55.13,95.86 56.38,97.169 56.23,97.299 56.07,97.4 "/>
<polygon points="55.041,80.26 56.14,81.7 54.98,80.31 55,80.29 "/>
<path d="M52.19,167.69c-0.479,0.649-0.83,1.35-1.06,2.09l-1.74-0.54l0.16-1.81C49.56,167.43,50.55,167.52,52.19,167.69z"/>
<path d="M51.19,119.29l-1.76,0.45c0.38-0.729,0.77-1.4,1.18-2.01C51.01,118.6,51.16,119.209,51.19,119.29z"/>
<path d="M49.43,119.74l1.61,0.83c-0.341,0.67-1.07,1.06-1.82,0.97s-1.36-0.62-1.55-1.35l0.75-0.2l-0.75,0.19l-0.03-0.091
	c-0.03-0.09-0.07-0.229-0.14-0.409c-0.141-0.36-0.36-0.881-0.7-1.44c-0.66-1.15-1.74-2.47-3.38-3.34
	c-1.101-0.58-2.471-0.98-4.28-0.98c-1.03,0-2.21,0.141-3.55,0.46l0.029-0.01l0.07-0.02l0.01-0.011l-0.3-0.89l-0.27-0.83
	c8.18-1.99,11.89,2.23,13.41,4.98c-0.25,0.41-0.5,0.85-0.73,1.31L49.43,119.74z"/>
<path d="M50.7,154.01l-1.27,1.289l-1.16-1.39l0.03-0.03l0.09-0.08c0.09-0.069,0.22-0.18,0.39-0.329c0.2-0.171,0.45-0.381,0.74-0.641
	C49.91,153.22,50.3,153.62,50.7,154.01z"/>
<path d="M50.61,117.73c-0.41,0.609-0.8,1.28-1.18,2.01c0,0-0.24-0.93-0.89-2.14c0.35-0.601,0.72-1.16,1.1-1.67
	C50.06,116.589,50.38,117.209,50.61,117.73z"/>
<path d="M48.27,153.91l1.16,1.39c-36.08-35.56-14.3-42.68-14.3-42.68l0.43,1.771l0.03-0.011c-0.07,0.03-0.17,0.08-0.3,0.141
	c-0.301,0.13-0.721,0.359-1.2,0.68c-0.95,0.66-2.08,1.69-2.82,3.26c-0.5,1.061-0.84,2.36-0.84,4.04c0,2.78,0.97,6.65,4.03,11.851
	c2.89,4.93,7.649,11.04,15.06,18.479c-0.29,0.26-0.54,0.47-0.74,0.641c-0.17,0.149-0.3,0.26-0.39,0.329l-0.09,0.08L48.27,153.91z"/>
<path d="M49.43,119.74l-1.62-0.83c0.23-0.46,0.48-0.899,0.73-1.31C49.19,118.81,49.43,119.74,49.43,119.74z"/>
<polygon points="48.42,119.99 47.67,120.19 47.67,120.18 "/>
<path d="M46.01,81.12l0.01,0.23c-0.01,0.35-0.06,0.66-0.15,0.949c-0.399,0.29-0.609,0.44-0.609,0.44L44.2,81.27L46.01,81.12z"/>
<path d="M44.49,71.54v0.17c0,0.34-0.06,0.54-0.109,0.73c-0.051,0.14-0.09,0.27-0.141,0.39l-0.56,0.37l-1-1.52L44.49,71.54z"/>
<path d="M41.92,100.58l1.42,2.851c-0.04,0.02-0.67,0.33-1.74,0.76h-0.01l-0.24,0.09c-0.1,0.02-0.2,0.02-0.3,0.03h-0.01
	c-0.32,0.02-0.65,0.029-0.971,0.029c-2.17,0-4.45-0.43-6.71-1.489c0.62-0.12,1.23-0.261,1.82-0.41c2.08-0.521,3.899-1.17,5.1-1.63
	v-0.011c0.101-0.029,0.19-0.069,0.271-0.1l0.279-0.01C41.19,100.669,41.56,100.629,41.92,100.58z"/>
<polygon points="43.13,81.35 42.39,81.41 42.39,81.35 42.89,81.35 "/>
<path d="M42.94,62.7c0.05,0.15,0.101,0.29,0.13,0.44c-1.029,0.58-1.62,0.909-1.62,0.909l-0.88-1.579l0.9-1.58
	c0.37,0.21,0.689,0.5,0.93,0.819C42.65,62.02,42.82,62.36,42.94,62.7z"/>
<polygon points="42.89,81.35 42.39,81.35 42.4,81.27 42.47,81.28 42.5,81.29 "/>
<polygon points="42.47,81.28 42.4,81.27 42.4,81.26 "/>
<path d="M40.78,70.76l1.66-1.101c-0.18,0.67-0.38,1.351-0.6,2.03l-0.94-0.28l-0.01,0.021v0.01l-0.01,0.02l-0.04,0.07L40.78,70.76z"
	/>
<polygon points="42.4,81.27 42.39,81.35 42.38,81.32 "/>
<polygon points="42.34,71.709 41.82,71.75 41.83,71.709 41.91,71.709 "/>
<path d="M41.72,100.18l0.2,0.399c-0.36,0.05-0.73,0.09-1.091,0.11l-0.279,0.01C41.28,100.41,41.69,100.2,41.72,100.18z"/>
<polygon points="41.91,71.709 41.83,71.709 41.84,71.69 "/>
<path d="M41.84,71.69l-0.011,0.02h-0.97c0.01-0.14,0.021-0.21,0.021-0.25l0.01-0.02v-0.01l0.01-0.021L41.84,71.69z"/>
<polygon points="41.83,71.709 41.82,71.75 40.87,71.83 40.86,71.709 "/>
<path d="M40.87,71.83l0.95-0.08c-0.319,1-0.67,2-1.04,2.98c-1.279,3.47-2.72,6.68-3.39,8.14c-0.19,0.42-0.32,0.71-0.35,0.76
	l-0.091,0.2l-0.1,0.141l-1.47-1.07l-1.261-1.3l-0.04,0.04l1.051,1.08L33.91,81.83c1.58-2.16,3.061-4.25,4.271-6.01
	c1.2-1.75,2.13-3.21,2.53-4c0.06-0.12,0.109-0.22,0.13-0.29l0.02,0.18L40.87,71.83z"/>
<path d="M40.84,71.53l0.04-0.07c0,0.04-0.011,0.11-0.021,0.25L40.84,71.53z"/>
<polygon points="39.92,63.62 39.68,64.04 39.53,63.919 39.69,63.79 "/>
<polygon points="39.69,63.79 39.53,63.919 39.52,63.9 "/>
<polygon points="39.68,64.04 39.541,63.959 39.53,63.919 "/>
<polygon points="39.53,63.919 39.51,63.9 39.52,63.9 "/>
<polygon points="36.95,83.83 36.9,83.95 36.74,84.11 36.82,84 35.33,82.919 35.25,82.839 35.38,82.9 36.85,83.97 "/>
<polygon points="36.82,84 36.74,84.11 36.65,84.2 36.61,84.24 35.33,82.919 "/>
<path d="M36.65,84.2l0.09-0.09c-2.22,3.07-4.62,6.29-6.689,9.03c-1.91,1.55-3.78,3-5.4,4.239c-0.65,0.5-1.27,0.96-1.82,1.381
	l-1.01-0.78c0,0,0.41-0.53,1.12-1.45c0.7-0.92,1.69-2.23,2.86-3.77c2.32-3.07,5.32-7.07,8.04-10.841c-0.05,0.11-0.09,0.19-0.12,0.25
	l1.45,0.641l0.159,0.109l1.28,1.32L36.65,84.2z"/>
<polygon points="35.4,113.45 35.7,114.339 35.69,114.35 "/>
<polygon points="35.4,113.45 35.69,114.35 35.62,114.37 35.59,114.379 35.56,114.39 35.13,112.62 "/>
<polygon points="34.12,81.6 35.38,82.9 35.13,82.72 34.08,81.64 "/>
<polygon points="35.38,82.9 35.25,82.839 35.13,82.72 "/>
<path d="M35.17,82.81l-1.45-0.641c0.03-0.06,0.07-0.14,0.12-0.25l0.029-0.05L35.17,82.81z"/>
<path d="M36.39,100.14c-0.75,0.649-1.32,1.149-1.67,1.46c-0.3,0.26-0.45,0.399-0.45,0.399l-1.21-1.35l0.9-1.58
	C34.78,99.54,35.59,99.89,36.39,100.14z"/>
<path d="M24.65,97.379c1.62-1.239,3.49-2.689,5.4-4.239c-3.03,4.04-5.35,7.05-5.35,7.05l-1.87-1.43
	C23.38,98.339,24,97.879,24.65,97.379z"/>
<path d="M21.86,101.29c0.58,0.53,1.25,0.94,1.99,1.25c-1.32,0.98-2.13,1.57-2.14,1.57l-1.06-1.47L21.86,101.29z"/>
<polygon points="18.14,102.22 18.14,102.839 17.76,102.5 "/>
</svg>
