<?xml version="1.0" encoding="utf-8"?>
<!-- Generator: Adobe Illustrator 15.0.2, SVG Export Plug-In  -->
<!DOCTYPE svg PUBLIC "-//W3C//DTD SVG 1.1//EN" "http://www.w3.org/Graphics/SVG/1.1/DTD/svg11.dtd" [
	<!ENTITY ns_flows "http://ns.adobe.com/Flows/1.0/">
]>
<svg version="1.1"
	 xmlns="http://www.w3.org/2000/svg" xmlns:xlink="http://www.w3.org/1999/xlink" xmlns:a="http://ns.adobe.com/AdobeSVGViewerExtensions/3.0/"
	 x="0px" y="0px" width="292px" height="228px" viewBox="9.451 9.545 292 228"
	 overflow="visible" enable-background="new 9.451 9.545 292 228" xml:space="preserve">
<defs>
</defs>
<rect x="1" y="1" display="none" fill="#22B573" stroke="#000000" stroke-width="2" stroke-miterlimit="10" width="324" height="256"/>
<g id="XMLID_2_">
	<g>
		<path d="M185.77,37.82v3.69c-1.35-0.14-2.529-0.82-3.329-1.81L185.77,37.82z"/>
		<path d="M190.77,104.04l-3.93,2.21l-0.07-0.04l-1.539,0.89l-3.74-2.11c0.56-2.13,2.51-3.71,4.819-3.71
			C188.26,101.28,189.95,102.4,190.77,104.04z"/>
		<path d="M216.66,120.5c2.76,0,5,2.23,5,4.99c0,2.72-2.18,4.939-4.891,4.99v-6.88l-3.329-1.93
			C214.31,120.94,215.43,120.5,216.66,120.5z"/>
		<path d="M250.98,173.47c0.5,0.771,0.789,1.69,0.789,2.681c0,2.76-2.239,4.989-5,4.989v-5.08l-4.289-2.449
			c0.859-1.471,2.46-2.46,4.289-2.46C248.54,171.15,250.1,172.07,250.98,173.47z"/>
		<path d="M221.66,19.5c0,1.05-0.32,2.02-0.88,2.83l-4.511-2.57L212.33,22c-0.43-0.73-0.67-1.59-0.67-2.5c0-2.76,2.24-4.99,5-4.99
			S221.66,16.74,221.66,19.5z"/>
		<path d="M190.49,173.37l-3.971,2.26l-5.319-3.08c0.819-1.66,2.52-2.8,4.49-2.8C187.97,169.75,189.89,171.28,190.49,173.37z"/>
		<path d="M250.87,213.71c-0.83,1.63-2.51,2.74-4.46,2.74c-1.98,0-3.69-1.15-4.49-2.83l4.85-2.771v-4.369
			c2.591,0.18,4.641,2.329,4.641,4.97C251.41,212.26,251.21,213.03,250.87,213.71z"/>
		<path d="M121.56,175.36c0.83-1.62,2.51-2.721,4.45-2.721c2.76,0,5,2.24,5,5c0,2.761-2.24,4.99-5,4.99c-2.76,0-5-2.229-5-4.99
			C121.01,176.82,121.21,176.04,121.56,175.36z"/>
		<path d="M216.77,154.56v3.83l-0.489,0.28h-0.011l-5.21,2.97c-0.34-0.67-0.529-1.43-0.529-2.239c0-2.761,2.239-5,5-5
			C215.96,154.4,216.37,154.45,216.77,154.56z"/>
		<path d="M273.45,160.81c-0.46-0.75-0.72-1.63-0.72-2.569c0-2.76,2.239-4.99,5-4.99c2.75,0,4.989,2.23,4.989,4.99s-2.239,5-4.989,5
			C275.91,163.24,274.32,162.27,273.45,160.81z"/>
		<path d="M181.74,74.53c-0.5-0.77-0.79-1.69-0.79-2.68c0-2.7,2.14-4.89,4.819-4.98v5.07l4.431,2.52c-0.87,1.43-2.45,2.39-4.25,2.39
			C184.18,76.85,182.62,75.93,181.74,74.53z"/>
		<path d="M185.77,37.82v-0.67l4.99-2.85c0.351,0.67,0.54,1.44,0.54,2.25c0,2.76-2.229,4.99-4.99,4.99c-0.18,0-0.359-0.01-0.54-0.03
			V37.82z"/>
		<path d="M36.56,123.29c0.37,0.7,0.58,1.5,0.58,2.35c0,2.761-2.24,5-5,5c-2.76,0-4.99-2.239-4.99-5c0-2.76,2.23-4.99,4.99-4.99
			C34.05,120.65,35.71,121.72,36.56,123.29z"/>
		<path d="M124.77,38l4.29,2.49c-0.9,1.35-2.44,2.24-4.18,2.24c-1.79,0-3.35-0.93-4.23-2.34L124.77,38z"/>
		<path d="M219.78,87.33l-3.511,2l-4.88-2.78c0.91-1.18,2.341-1.94,3.95-1.94C217.28,84.61,218.95,85.71,219.78,87.33z"/>
		<path d="M99.47,162.92c-0.78,1.72-2.52,2.91-4.53,2.91c-2.76,0-5-2.23-5-4.99c0-1.21,0.43-2.32,1.15-3.189l4.18,2.38l3.71-2.12
			c0.6,0.82,0.95,1.84,0.95,2.93C99.93,161.58,99.77,162.29,99.47,162.92z"/>
		<path d="M271.35,86.97c0.49-2.24,2.5-3.92,4.891-3.92c2.75,0,4.99,2.23,4.99,4.99c0,2.76-2.24,5-4.99,5c-2.76,0-5-2.24-5-5
			C271.24,87.67,271.28,87.32,271.35,86.97z"/>
		<path d="M190.94,71.85c0,0.96-0.271,1.85-0.74,2.61l-4.431-2.52v-5.07c0.061-0.01,0.12-0.01,0.181-0.01
			C188.71,66.86,190.94,69.09,190.94,71.85z"/>
		<path d="M211.26,92.49c-0.58-0.82-0.92-1.81-0.92-2.88c0-1.15,0.391-2.22,1.05-3.06l4.88,2.78l3.511-2
			c0.35,0.68,0.55,1.46,0.55,2.28c0,2.75-2.23,4.99-4.99,4.99C213.66,94.6,212.17,93.77,211.26,92.49z"/>
		<path d="M159.69,52.53c0.35,0.67,0.54,1.44,0.54,2.25c0,2.76-2.24,5-5,5c-0.16,0-0.31-0.01-0.46-0.03v-4.36l-4.19-2.43
			c0.73-1.86,2.53-3.17,4.65-3.17C157.18,49.79,158.87,50.9,159.69,52.53z"/>
		<path d="M158.15,20.94c-0.9,1.3-2.41,2.16-4.11,2.16c-2.76,0-5-2.24-5-5c0-2.75,2.24-4.99,5-4.99c2.75,0,4.99,2.24,4.99,4.99
			C159.03,19.15,158.7,20.13,158.15,20.94z"/>
		<path d="M125.77,108.17l4.52,2.55c-0.91,1.28-2.4,2.12-4.09,2.12c-0.15,0-0.29-0.01-0.43-0.03V108.17z"/>
		<path d="M68.31,39.8c-0.87,1.5-2.48,2.5-4.33,2.5c-2.76,0-4.99-2.24-4.99-5c0-2.76,2.23-5,4.99-5c2.76,0,5,2.24,5,5
			C68.98,38.21,68.74,39.07,68.31,39.8z"/>
		<path d="M131.2,107.84c0,1.07-0.34,2.06-0.91,2.88l-4.52-2.55v-0.32l-0.75-0.43l4.95-2.86
			C130.74,105.43,131.2,106.58,131.2,107.84z"/>
		<path d="M182.02,213.74c-0.67-0.851-1.069-1.92-1.069-3.08c0-2.7,2.14-4.9,4.819-4.99v5.18l4.391,2.5
			c-0.891,1.391-2.44,2.311-4.21,2.311C184.35,215.66,182.93,214.91,182.02,213.74z"/>
		<path d="M61.34,109.32c-0.65-0.84-1.03-1.9-1.03-3.04c0-2.76,2.24-5,4.99-5c2.25,0,4.16,1.49,4.79,3.54l-5.32,3.03v3.4
			C63.38,111.1,62.15,110.38,61.34,109.32z"/>
		<path d="M154.77,84.77v5.4l-3.97,2.3c-0.51-0.78-0.8-1.71-0.8-2.71C150,87.07,152.12,84.88,154.77,84.77z"/>
		<path d="M154.77,55.39v4.36c-2.54-0.22-4.53-2.37-4.53-4.97c0-0.64,0.12-1.26,0.34-1.82L154.77,55.39z"/>
		<path d="M125.02,107.42l-0.25,0.15l-3.11-1.8c0.03-0.07,0.06-0.14,0.1-0.21L125.02,107.42z"/>
		<path d="M186.52,175.63l-0.75,0.43v3.69c-0.029,0-0.05,0-0.079,0c-2.761,0-5-2.24-5-5c0-0.79,0.18-1.54,0.51-2.2L186.52,175.63z"
			/>
		<path d="M159.48,226.43c0.43,0.74,0.68,1.59,0.68,2.511c0,2.75-2.24,4.989-5,4.989c-2.75,0-4.99-2.239-4.99-4.989
			c0-2.761,2.24-5,4.99-5C157,223.94,158.62,224.94,159.48,226.43z"/>
		<path d="M70.09,104.82c0.13,0.46,0.21,0.95,0.21,1.46c0,2.76-2.24,5-5,5c-0.18,0-0.36-0.01-0.53-0.03v-3.4L70.09,104.82z"/>
		<path d="M99.5,91.49c0,0.44-0.06,0.87-0.17,1.28l-4.06-2.31l-0.5-0.29v-3.66C97.41,86.63,99.5,88.82,99.5,91.49z"/>
		<path d="M190.77,104.04c0.341,0.67,0.53,1.43,0.53,2.24c0,0.81-0.189,1.58-0.53,2.25l-3.93-2.28L190.77,104.04z"/>
		<path d="M181.85,34.29c0.83-1.63,2.511-2.74,4.46-2.74c1.95,0,3.631,1.12,4.45,2.75l-4.99,2.85v0.67l-3.329,1.88
			c-0.71-0.86-1.131-1.96-1.131-3.15C181.31,35.74,181.51,34.97,181.85,34.29z"/>
		<path d="M159.27,87.19c0.461,0.75,0.721,1.63,0.721,2.57c0,0.98-0.28,1.9-0.78,2.67c-0.88,1.39-2.44,2.32-4.22,2.32
			c-1.75,0-3.3-0.91-4.19-2.28l3.97-2.3v-5.4c0.07-0.01,0.15-0.01,0.22-0.01C156.81,84.76,158.4,85.73,159.27,87.19z"/>
		<path d="M246.77,206.48v4.369l-4.85,2.771c-0.32-0.65-0.5-1.39-0.5-2.17c0-2.76,2.23-4.99,4.99-4.99
			C246.53,206.46,246.65,206.46,246.77,206.48z"/>
		<path d="M245.99,72.39l5.479,3.15c-0.83,1.61-2.51,2.71-4.439,2.71c-2.311,0-4.25-1.58-4.82-3.71L245.99,72.39z"/>
		<path d="M220.53,159.4c0,0.54-0.09,1.06-0.25,1.55l-4-2.28l0.489-0.28v-3.83C218.93,155.11,220.53,157.07,220.53,159.4z"/>
		<path d="M161.48,159.96c0,0.37-0.04,0.74-0.12,1.09l-4.59-2.66v-3.409C159.4,155.12,161.48,157.3,161.48,159.96z"/>
		<path d="M216.28,158.67l-5.2,3.021c0-0.011-0.01-0.03-0.021-0.051l5.21-2.97H216.28z"/>
		<path d="M216.28,158.67l4,2.28c-0.65,2-2.53,3.45-4.75,3.45c-1.931,0-3.61-1.101-4.45-2.71L216.28,158.67z"/>
		<path d="M220.34,225.92c0.46,0.75,0.72,1.64,0.72,2.58c0,2.76-2.239,4.99-5,4.99c-2.76,0-4.989-2.23-4.989-4.99
			c0-1.02,0.31-1.97,0.819-2.76l4.38,2.5L220.34,225.92z"/>
		<path d="M190.49,173.37c0.02,0.07,0.04,0.149,0.05,0.22l-3.771,2.19l-0.25-0.15L190.49,173.37z"/>
		<path d="M125.77,108.17v4.64c-2.56-0.21-4.56-2.36-4.56-4.97c0-0.74,0.16-1.44,0.45-2.07l3.11,1.8l0.25-0.15l0.75,0.43V108.17z"/>
		<path d="M156.77,158.39l4.59,2.66c-0.5,2.23-2.49,3.9-4.88,3.9c-2.75,0-4.99-2.23-4.99-4.99s2.24-5,4.99-5c0.1,0,0.2,0,0.29,0.021
			V158.39z"/>
		<path d="M252.03,73.25c0,0.83-0.2,1.61-0.561,2.29l-5.479-3.15l0.779-0.45v-3.67c0.091-0.02,0.171-0.02,0.261-0.02
			C249.79,68.25,252.03,70.49,252.03,73.25z"/>
		<path d="M95.27,90.46l-5.33,3.04c-0.28-0.62-0.43-1.3-0.43-2.01c0-2.76,2.24-5,5-5c0.09,0,0.18,0,0.26,0.02v3.66L95.27,90.46z"/>
		<path d="M99,52.94c0.48,0.77,0.76,1.67,0.76,2.64c0,2.76-2.24,4.99-4.99,4.99v-5.18L99,52.94z"/>
		<path d="M190.54,173.59c0.09,0.37,0.14,0.76,0.14,1.16c0,2.73-2.189,4.96-4.91,5v-3.69l0.75-0.43l0.25,0.15L190.54,173.59z"/>
		<path d="M246.77,176.06v5.08c-2.75,0-4.989-2.229-4.989-4.989c0-0.931,0.25-1.801,0.7-2.54L246.77,176.06z"/>
		<path d="M129.97,104.56l-4.95,2.86l-3.26-1.86c0.83-1.61,2.5-2.71,4.44-2.71C127.7,102.85,129.05,103.51,129.97,104.56z"/>
		<path d="M150.77,122.28c0.82-1.64,2.51-2.76,4.46-2.76c1.84,0,3.44,0.99,4.31,2.47l-2.77,1.61v5.669c-0.49,0.16-1,0.24-1.54,0.24
			c-2.76,0-4.99-2.24-4.99-4.99C150.24,123.71,150.43,122.95,150.77,122.28z"/>
		<path d="M190.94,210.66c0,0.99-0.29,1.91-0.78,2.689l-4.391-2.5v-5.18c0.061-0.01,0.12-0.01,0.181-0.01
			C188.71,205.66,190.94,207.9,190.94,210.66z"/>
		<path d="M250.7,34.26c0.67,0.85,1.069,1.92,1.069,3.08c0,2.76-2.239,5-5,5v-5.19l-4.25-2.42c0.87-1.43,2.45-2.39,4.25-2.39
			C248.37,32.34,249.79,33.09,250.7,34.26z"/>
		<path d="M216.27,19.76l4.511,2.57c-0.9,1.31-2.41,2.17-4.12,2.17c-1.851,0-3.46-1-4.33-2.5L216.27,19.76z"/>
		<path d="M129.88,37.74c0,1.02-0.3,1.97-0.82,2.75L124.77,38l-4.12,2.39c-0.49-0.77-0.77-1.68-0.77-2.65c0-2.76,2.24-5,5-5
			C127.64,32.74,129.88,34.98,129.88,37.74z"/>
		<path d="M220.34,225.92l-4.07,2.32l-4.38-2.5c0.9-1.351,2.431-2.24,4.17-2.24C217.88,223.5,219.47,224.47,220.34,225.92z"/>
		<path d="M274.57,227.07c0.899-1.311,2.41-2.17,4.12-2.17c2.75,0,4.989,2.239,4.989,4.989c0,2.761-2.239,5-4.989,5
			c-2.761,0-5-2.239-5-5C273.69,228.85,274.01,227.88,274.57,227.07z"/>
		<path d="M159.54,121.99c0.44,0.74,0.69,1.61,0.69,2.53c0,2.22-1.45,4.1-3.46,4.75V123.6L159.54,121.99z"/>
		<path d="M125.77,138.81v3.82l-5.47,3.12c-0.27-0.62-0.42-1.3-0.42-2.02c0-2.761,2.24-5,5-5
			C125.18,138.73,125.48,138.76,125.77,138.81z"/>
		<path d="M90.84,52.5c0.91-1.17,2.33-1.92,3.93-1.92c1.78,0,3.35,0.94,4.23,2.36l-4.23,2.45v5.18c-2.76,0-5-2.23-5-4.99
			C89.77,54.42,90.17,53.35,90.84,52.5z"/>
		<path d="M246.77,37.15v5.19c-2.75,0-4.989-2.24-4.989-5c0-0.96,0.27-1.85,0.739-2.61L246.77,37.15z"/>
		<path d="M99.33,92.77l22.43,12.79c-0.04,0.07-0.07,0.14-0.1,0.21L99.32,92.81C99.33,92.8,99.33,92.79,99.33,92.77z"/>
		<path d="M98.98,157.91l-3.71,2.12l-4.18-2.38c0.92-1.11,2.3-1.811,3.85-1.811C96.6,155.84,98.07,156.66,98.98,157.91z"/>
		<path d="M190.49,173.37l20.569-11.73c0.011,0.021,0.021,0.04,0.021,0.051l-20.54,11.899
			C190.53,173.52,190.51,173.44,190.49,173.37z"/>
		<path d="M125.77,138.81c2.34,0.421,4.11,2.46,4.11,4.921c0,2.76-2.24,4.989-5,4.989c-2.04,0-3.8-1.22-4.58-2.97l5.47-3.12V138.81z
			"/>
		<path d="M216.77,123.6v6.88c-0.039,0.01-0.069,0.01-0.109,0.01c-2.76,0-5-2.24-5-5c0-1.53,0.689-2.9,1.78-3.82L216.77,123.6z"/>
		<path d="M95.27,90.46l4.05,2.35c-0.58,2.11-2.51,3.67-4.81,3.67c-2.04,0-3.8-1.23-4.57-2.98L95.27,90.46z"/>
		<path d="M99.33,92.77c0,0.02,0,0.03-0.01,0.04l-4.05-2.35L99.33,92.77z"/>
		<path d="M245.99,72.39l-3.78,2.15c-0.11-0.41-0.17-0.84-0.17-1.29c0-2.67,2.1-4.86,4.729-4.98v3.67L245.99,72.39z"/>
		<path d="M273.24,21.57c-0.431-0.74-0.681-1.59-0.681-2.51c0-2.75,2.24-4.99,5-4.99c2.761,0,4.99,2.24,4.99,4.99
			c0,2.76-2.229,5-4.99,5C275.72,24.06,274.1,23.06,273.24,21.57z"/>
		<path d="M185.23,107.1l-3.15,1.83c-0.49-0.77-0.771-1.68-0.771-2.65c0-0.45,0.061-0.88,0.181-1.29L185.23,107.1z"/>
		<path d="M186.84,106.25l3.93,2.28c-0.829,1.63-2.51,2.75-4.46,2.75c-1.79,0-3.359-0.94-4.229-2.35l3.15-1.83l1.539-0.89
			L186.84,106.25z"/>
	</g>
	<g>
		<line fill="none" stroke="#000000" stroke-width="3" stroke-miterlimit="10" x1="250.98" y1="173.47" x2="273.45" y2="160.81"/>
		<line fill="none" stroke="#000000" stroke-width="3" stroke-miterlimit="10" x1="159.48" y1="226.43" x2="182.02" y2="213.74"/>
		<line fill="none" stroke="#000000" stroke-width="3" stroke-miterlimit="10" x1="274.57" y1="227.07" x2="250.87" y2="213.71"/>
		<line fill="none" stroke="#000000" stroke-width="3" stroke-miterlimit="10" x1="216.77" y1="154.56" x2="216.77" y2="130.48"/>
		<line fill="none" stroke="#000000" stroke-width="3" stroke-miterlimit="10" x1="161.36" y1="161.05" x2="181.2" y2="172.55"/>
		<line fill="none" stroke="#000000" stroke-width="3" stroke-miterlimit="10" x1="156.77" y1="129.27" x2="156.77" y2="154.98"/>
		<line fill="none" stroke="#000000" stroke-width="3" stroke-miterlimit="10" x1="182.08" y1="108.93" x2="159.54" y2="121.99"/>
		<line fill="none" stroke="#000000" stroke-width="3" stroke-miterlimit="10" x1="213.44" y1="121.67" x2="190.77" y2="108.53"/>
		<line fill="none" stroke="#000000" stroke-width="3" stroke-miterlimit="10" x1="246.77" y1="206.48" x2="246.77" y2="181.14"/>
		<line fill="none" stroke="#000000" stroke-width="3" stroke-miterlimit="10" x1="220.34" y1="225.92" x2="241.92" y2="213.62"/>
		<line fill="none" stroke="#000000" stroke-width="3" stroke-miterlimit="10" x1="190.16" y1="213.35" x2="211.89" y2="225.74"/>
		<line fill="none" stroke="#000000" stroke-width="3" stroke-miterlimit="10" x1="185.77" y1="179.75" x2="185.77" y2="205.67"/>
		<line fill="none" stroke="#000000" stroke-width="3" stroke-miterlimit="10" x1="211.06" y1="161.64" x2="190.49" y2="173.37"/>
		<line fill="none" stroke="#000000" stroke-width="3" stroke-miterlimit="10" x1="242.48" y1="173.61" x2="220.28" y2="160.95"/>
		<path fill="none" stroke="#000000" stroke-width="3" stroke-miterlimit="10" d="M250.87,213.71c0.34-0.68,0.54-1.45,0.54-2.26
			c0-2.641-2.05-4.79-4.641-4.97c-0.119-0.021-0.239-0.021-0.359-0.021c-2.76,0-4.99,2.23-4.99,4.99c0,0.78,0.18,1.52,0.5,2.17
			c0.8,1.68,2.51,2.83,4.49,2.83C248.36,216.45,250.04,215.34,250.87,213.71z"/>
		<path fill="none" stroke="#000000" stroke-width="3" stroke-miterlimit="10" d="M185.77,179.75c2.721-0.04,4.91-2.27,4.91-5
			c0-0.4-0.05-0.79-0.14-1.16c-0.01-0.07-0.03-0.149-0.05-0.22c-0.601-2.09-2.521-3.62-4.8-3.62c-1.971,0-3.671,1.14-4.49,2.8
			c-0.33,0.66-0.51,1.41-0.51,2.2c0,2.76,2.239,5,5,5C185.72,179.75,185.74,179.75,185.77,179.75z"/>
		<path fill="none" stroke="#000000" stroke-width="3" stroke-miterlimit="10" d="M211.89,225.74c-0.51,0.79-0.819,1.74-0.819,2.76
			c0,2.76,2.229,4.99,4.989,4.99c2.761,0,5-2.23,5-4.99c0-0.94-0.26-1.83-0.72-2.58c-0.87-1.45-2.46-2.42-4.28-2.42
			C214.32,223.5,212.79,224.39,211.89,225.74z"/>
		<path fill="none" stroke="#000000" stroke-width="3" stroke-miterlimit="10" d="M246.77,181.14c2.761,0,5-2.229,5-4.989
			c0-0.99-0.289-1.91-0.789-2.681c-0.881-1.399-2.44-2.319-4.211-2.319c-1.829,0-3.43,0.989-4.289,2.46
			c-0.45,0.739-0.7,1.609-0.7,2.54C241.78,178.91,244.02,181.14,246.77,181.14z"/>
		<path fill="none" stroke="#000000" stroke-width="3" stroke-miterlimit="10" d="M190.16,213.35c0.49-0.779,0.78-1.699,0.78-2.689
			c0-2.76-2.23-5-4.99-5c-0.061,0-0.12,0-0.181,0.01c-2.68,0.09-4.819,2.29-4.819,4.99c0,1.16,0.399,2.229,1.069,3.08
			c0.91,1.17,2.33,1.92,3.931,1.92C187.72,215.66,189.27,214.74,190.16,213.35z"/>
		<path fill="none" stroke="#000000" stroke-width="3" stroke-miterlimit="10" d="M282.72,158.24c0-2.76-2.239-4.99-4.989-4.99
			c-2.761,0-5,2.23-5,4.99c0,0.939,0.26,1.819,0.72,2.569c0.87,1.46,2.46,2.431,4.28,2.431C280.48,163.24,282.72,161,282.72,158.24z
			"/>
		<path fill="none" stroke="#000000" stroke-width="3" stroke-miterlimit="10" d="M283.68,229.89c0-2.75-2.239-4.989-4.989-4.989
			c-1.71,0-3.221,0.859-4.12,2.17c-0.561,0.81-0.88,1.779-0.88,2.819c0,2.761,2.239,5,5,5
			C281.44,234.89,283.68,232.65,283.68,229.89z"/>
		<path fill="none" stroke="#000000" stroke-width="3" stroke-miterlimit="10" d="M160.16,228.94c0-0.921-0.25-1.771-0.68-2.511
			c-0.86-1.489-2.48-2.489-4.32-2.489c-2.75,0-4.99,2.239-4.99,5c0,2.75,2.24,4.989,4.99,4.989
			C157.92,233.93,160.16,231.69,160.16,228.94z"/>
		<path fill="none" stroke="#000000" stroke-width="3" stroke-miterlimit="10" d="M161.36,161.05c0.08-0.35,0.12-0.72,0.12-1.09
			c0-2.66-2.08-4.84-4.71-4.979c-0.09-0.021-0.19-0.021-0.29-0.021c-2.75,0-4.99,2.24-4.99,5s2.24,4.99,4.99,4.99
			C158.87,164.95,160.86,163.28,161.36,161.05z"/>
		<line fill="none" stroke="#000000" stroke-width="3" stroke-miterlimit="10" x1="159.21" y1="92.43" x2="181.49" y2="104.99"/>
		<line fill="none" stroke="#000000" stroke-width="3" stroke-miterlimit="10" x1="68.31" y1="39.8" x2="90.84" y2="52.5"/>
		<line fill="none" stroke="#000000" stroke-width="3" stroke-miterlimit="10" x1="182.44" y1="39.7" x2="159.69" y2="52.53"/>
		<line fill="none" stroke="#000000" stroke-width="3" stroke-miterlimit="10" x1="61.34" y1="109.32" x2="36.56" y2="123.29"/>
		<line fill="none" stroke="#000000" stroke-width="3" stroke-miterlimit="10" x1="130.29" y1="110.72" x2="150.77" y2="122.28"/>
		<line fill="none" stroke="#000000" stroke-width="3" stroke-miterlimit="10" x1="99.47" y1="162.92" x2="121.56" y2="175.36"/>
		<line fill="none" stroke="#000000" stroke-width="3" stroke-miterlimit="10" x1="125.77" y1="112.81" x2="125.77" y2="138.81"/>
		<line fill="none" stroke="#000000" stroke-width="3" stroke-miterlimit="10" x1="70.09" y1="104.82" x2="89.94" y2="93.5"/>
		<polyline fill="none" stroke="#000000" stroke-width="3" stroke-miterlimit="10" points="91.09,157.65 64.77,142.63 64.77,111.25 
					"/>
		<line fill="none" stroke="#000000" stroke-width="3" stroke-miterlimit="10" x1="120.3" y1="145.75" x2="98.98" y2="157.91"/>
		<line fill="none" stroke="#000000" stroke-width="3" stroke-miterlimit="10" x1="154.77" y1="59.75" x2="154.77" y2="84.77"/>
		<line fill="none" stroke="#000000" stroke-width="3" stroke-miterlimit="10" x1="129.06" y1="40.49" x2="150.58" y2="52.96"/>
		<line fill="none" stroke="#000000" stroke-width="3" stroke-miterlimit="10" x1="99" y1="52.94" x2="120.65" y2="40.39"/>
		<line fill="none" stroke="#000000" stroke-width="3" stroke-miterlimit="10" x1="94.77" y1="86.51" x2="94.77" y2="60.57"/>
		<line fill="none" stroke="#000000" stroke-width="3" stroke-miterlimit="10" x1="121.66" y1="105.77" x2="99.32" y2="92.81"/>
		<line fill="none" stroke="#000000" stroke-width="3" stroke-miterlimit="10" x1="150.8" y1="92.47" x2="129.97" y2="104.56"/>
		<path fill="none" stroke="#000000" stroke-width="3" stroke-miterlimit="10" d="M159.69,52.53c0.35,0.67,0.54,1.44,0.54,2.25
			c0,2.76-2.24,5-5,5c-0.16,0-0.31-0.01-0.46-0.03c-2.54-0.22-4.53-2.37-4.53-4.97c0-0.64,0.12-1.26,0.34-1.82
			c0.73-1.86,2.53-3.17,4.65-3.17C157.18,49.79,158.87,50.9,159.69,52.53z"/>
		<path fill="none" stroke="#000000" stroke-width="3" stroke-miterlimit="10" d="M94.77,86.51c2.64,0.12,4.73,2.31,4.73,4.98
			c0,0.44-0.06,0.87-0.17,1.28c0,0.02,0,0.03-0.01,0.04c-0.58,2.11-2.51,3.67-4.81,3.67c-2.04,0-3.8-1.23-4.57-2.98
			c-0.28-0.62-0.43-1.3-0.43-2.01c0-2.76,2.24-5,5-5C94.6,86.49,94.69,86.49,94.77,86.51z"/>
		<path fill="none" stroke="#000000" stroke-width="3" stroke-miterlimit="10" d="M129.97,104.56c0.77,0.87,1.23,2.02,1.23,3.28
			c0,1.07-0.34,2.06-0.91,2.88c-0.91,1.28-2.4,2.12-4.09,2.12c-0.15,0-0.29-0.01-0.43-0.03c-2.56-0.21-4.56-2.36-4.56-4.97
			c0-0.74,0.16-1.44,0.45-2.07c0.03-0.07,0.06-0.14,0.1-0.21c0.83-1.61,2.5-2.71,4.44-2.71
			C127.7,102.85,129.05,103.51,129.97,104.56z"/>
		<path fill="none" stroke="#000000" stroke-width="3" stroke-miterlimit="10" d="M125.77,138.81c2.34,0.421,4.11,2.46,4.11,4.921
			c0,2.76-2.24,4.989-5,4.989c-2.04,0-3.8-1.22-4.58-2.97c-0.27-0.62-0.42-1.3-0.42-2.02c0-2.761,2.24-5,5-5
			C125.18,138.73,125.48,138.76,125.77,138.81z"/>
		<path fill="none" stroke="#000000" stroke-width="3" stroke-miterlimit="10" d="M120.65,40.39c-0.49-0.77-0.77-1.68-0.77-2.65
			c0-2.76,2.24-5,5-5c2.76,0,5,2.24,5,5c0,1.02-0.3,1.97-0.82,2.75c-0.9,1.35-2.44,2.24-4.18,2.24
			C123.09,42.73,121.53,41.8,120.65,40.39z"/>
		<path fill="none" stroke="#000000" stroke-width="3" stroke-miterlimit="10" d="M37.14,125.64c0,2.761-2.24,5-5,5
			c-2.76,0-4.99-2.239-4.99-5c0-2.76,2.23-4.99,4.99-4.99c1.91,0,3.57,1.07,4.42,2.64C36.93,123.99,37.14,124.79,37.14,125.64z"/>
		<path fill="none" stroke="#000000" stroke-width="3" stroke-miterlimit="10" d="M131.01,177.64c0,2.761-2.24,4.99-5,4.99
			c-2.76,0-5-2.229-5-4.99c0-0.819,0.2-1.6,0.55-2.279c0.83-1.62,2.51-2.721,4.45-2.721C128.77,172.64,131.01,174.88,131.01,177.64z
			"/>
		<path fill="none" stroke="#000000" stroke-width="3" stroke-miterlimit="10" d="M99,52.94c0.48,0.77,0.76,1.67,0.76,2.64
			c0,2.76-2.24,4.99-4.99,4.99c-2.76,0-5-2.23-5-4.99c0-1.16,0.4-2.23,1.07-3.08c0.91-1.17,2.33-1.92,3.93-1.92
			C96.55,50.58,98.12,51.52,99,52.94z"/>
		<path fill="none" stroke="#000000" stroke-width="3" stroke-miterlimit="10" d="M98.98,157.91c0.6,0.82,0.95,1.84,0.95,2.93
			c0,0.74-0.16,1.45-0.46,2.08c-0.78,1.72-2.52,2.91-4.53,2.91c-2.76,0-5-2.23-5-4.99c0-1.21,0.43-2.32,1.15-3.189
			c0.92-1.11,2.3-1.811,3.85-1.811C96.6,155.84,98.07,156.66,98.98,157.91z"/>
		<path fill="none" stroke="#000000" stroke-width="3" stroke-miterlimit="10" d="M159.54,121.99c0.44,0.74,0.69,1.61,0.69,2.53
			c0,2.22-1.45,4.1-3.46,4.75c-0.49,0.16-1,0.24-1.54,0.24c-2.76,0-4.99-2.24-4.99-4.99c0-0.81,0.19-1.57,0.53-2.24
			c0.82-1.64,2.51-2.76,4.46-2.76C157.07,119.52,158.67,120.51,159.54,121.99z"/>
		<path fill="none" stroke="#000000" stroke-width="3" stroke-miterlimit="10" d="M68.98,37.3c0,0.91-0.24,1.77-0.67,2.5
			c-0.87,1.5-2.48,2.5-4.33,2.5c-2.76,0-4.99-2.24-4.99-5c0-2.76,2.23-5,4.99-5C66.74,32.3,68.98,34.54,68.98,37.3z"/>
		<path fill="none" stroke="#000000" stroke-width="3" stroke-miterlimit="10" d="M70.09,104.82c0.13,0.46,0.21,0.95,0.21,1.46
			c0,2.76-2.24,5-5,5c-0.18,0-0.36-0.01-0.53-0.03c-1.39-0.15-2.62-0.87-3.43-1.93c-0.65-0.84-1.03-1.9-1.03-3.04
			c0-2.76,2.24-5,4.99-5C67.55,101.28,69.46,102.77,70.09,104.82z"/>
		<line fill="none" stroke="#000000" stroke-width="3" stroke-miterlimit="10" x1="181.74" y1="74.53" x2="159.27" y2="87.19"/>
		<line fill="none" stroke="#000000" stroke-width="3" stroke-miterlimit="10" x1="273.24" y1="21.57" x2="250.7" y2="34.26"/>
		<line fill="none" stroke="#000000" stroke-width="3" stroke-miterlimit="10" x1="158.15" y1="20.94" x2="181.85" y2="34.29"/>
		<line fill="none" stroke="#000000" stroke-width="3" stroke-miterlimit="10" x1="211.26" y1="92.49" x2="190.77" y2="104.04"/>
		<line fill="none" stroke="#000000" stroke-width="3" stroke-miterlimit="10" x1="271.35" y1="86.97" x2="251.47" y2="75.54"/>
		<line fill="none" stroke="#000000" stroke-width="3" stroke-miterlimit="10" x1="185.77" y1="41.51" x2="185.77" y2="66.87"/>
		<line fill="none" stroke="#000000" stroke-width="3" stroke-miterlimit="10" x1="212.33" y1="22" x2="190.76" y2="34.3"/>
		<line fill="none" stroke="#000000" stroke-width="3" stroke-miterlimit="10" x1="242.52" y1="34.73" x2="220.78" y2="22.33"/>
		<line fill="none" stroke="#000000" stroke-width="3" stroke-miterlimit="10" x1="246.77" y1="68.27" x2="246.77" y2="42.34"/>
		<line fill="none" stroke="#000000" stroke-width="3" stroke-miterlimit="10" x1="219.78" y1="87.33" x2="242.21" y2="74.54"/>
		<line fill="none" stroke="#000000" stroke-width="3" stroke-miterlimit="10" x1="190.2" y1="74.46" x2="211.39" y2="86.55"/>
		<path fill="none" stroke="#000000" stroke-width="3" stroke-miterlimit="10" d="M181.85,34.29c-0.34,0.68-0.54,1.45-0.54,2.26
			c0,1.19,0.421,2.29,1.131,3.15c0.8,0.99,1.979,1.67,3.329,1.81c0.181,0.02,0.36,0.03,0.54,0.03c2.761,0,4.99-2.23,4.99-4.99
			c0-0.81-0.189-1.58-0.54-2.25c-0.819-1.63-2.5-2.75-4.45-2.75C184.36,31.55,182.68,32.66,181.85,34.29z"/>
		<path fill="none" stroke="#000000" stroke-width="3" stroke-miterlimit="10" d="M246.77,68.27c-2.63,0.12-4.729,2.31-4.729,4.98
			c0,0.45,0.06,0.88,0.17,1.29c0.57,2.13,2.51,3.71,4.82,3.71c1.93,0,3.609-1.1,4.439-2.71c0.36-0.68,0.561-1.46,0.561-2.29
			c0-2.76-2.24-5-5-5C246.94,68.25,246.86,68.25,246.77,68.27z"/>
		<path fill="none" stroke="#000000" stroke-width="3" stroke-miterlimit="10" d="M211.39,86.55c-0.659,0.84-1.05,1.91-1.05,3.06
			c0,1.07,0.34,2.06,0.92,2.88c0.91,1.28,2.4,2.11,4.08,2.11c2.76,0,4.99-2.24,4.99-4.99c0-0.82-0.2-1.6-0.55-2.28
			c-0.83-1.62-2.5-2.72-4.44-2.72C213.73,84.61,212.3,85.37,211.39,86.55z"/>
		<path fill="none" stroke="#000000" stroke-width="3" stroke-miterlimit="10" d="M213.44,121.67c-1.091,0.92-1.78,2.29-1.78,3.82
			c0,2.76,2.24,5,5,5c0.04,0,0.07,0,0.109-0.01c2.711-0.051,4.891-2.271,4.891-4.99c0-2.76-2.24-4.99-5-4.99
			C215.43,120.5,214.31,120.94,213.44,121.67z"/>
		<path fill="none" stroke="#000000" stroke-width="3" stroke-miterlimit="10" d="M220.78,22.33c0.56-0.81,0.88-1.78,0.88-2.83
			c0-2.76-2.24-4.99-5-4.99s-5,2.23-5,4.99c0,0.91,0.24,1.77,0.67,2.5c0.87,1.5,2.479,2.5,4.33,2.5
			C218.37,24.5,219.88,23.64,220.78,22.33z"/>
		<path fill="none" stroke="#000000" stroke-width="3" stroke-miterlimit="10" d="M185.77,66.87c-2.68,0.09-4.819,2.28-4.819,4.98
			c0,0.99,0.29,1.91,0.79,2.68c0.88,1.4,2.439,2.32,4.21,2.32c1.8,0,3.38-0.96,4.25-2.39c0.47-0.76,0.74-1.65,0.74-2.61
			c0-2.76-2.23-4.99-4.99-4.99C185.89,66.86,185.83,66.86,185.77,66.87z"/>
		<path fill="none" stroke="#000000" stroke-width="3" stroke-miterlimit="10" d="M216.77,154.56
			c-0.399-0.109-0.81-0.159-1.239-0.159c-2.761,0-5,2.239-5,5c0,0.81,0.189,1.569,0.529,2.239c0.011,0.021,0.021,0.04,0.021,0.051
			c0.84,1.609,2.52,2.71,4.45,2.71c2.22,0,4.1-1.45,4.75-3.45c0.16-0.49,0.25-1.01,0.25-1.55
			C220.53,157.07,218.93,155.11,216.77,154.56z"/>
		<path fill="none" stroke="#000000" stroke-width="3" stroke-miterlimit="10" d="M242.52,34.73c-0.47,0.76-0.739,1.65-0.739,2.61
			c0,2.76,2.239,5,4.989,5c2.761,0,5-2.24,5-5c0-1.16-0.399-2.23-1.069-3.08c-0.91-1.17-2.33-1.92-3.931-1.92
			C244.97,32.34,243.39,33.3,242.52,34.73z"/>
		<path fill="none" stroke="#000000" stroke-width="3" stroke-miterlimit="10" d="M181.49,104.99c-0.12,0.41-0.181,0.84-0.181,1.29
			c0,0.97,0.28,1.88,0.771,2.65c0.87,1.41,2.439,2.35,4.229,2.35c1.95,0,3.631-1.12,4.46-2.75c0.341-0.67,0.53-1.44,0.53-2.25
			c0-0.81-0.189-1.57-0.53-2.24c-0.819-1.64-2.51-2.76-4.46-2.76C184,101.28,182.05,102.86,181.49,104.99z"/>
		<path fill="none" stroke="#000000" stroke-width="3" stroke-miterlimit="10" d="M154.77,84.77c-2.65,0.11-4.77,2.3-4.77,4.99
			c0,1,0.29,1.93,0.8,2.71c0.89,1.37,2.44,2.28,4.19,2.28c1.78,0,3.34-0.93,4.22-2.32c0.5-0.77,0.78-1.69,0.78-2.67
			c0-0.94-0.26-1.82-0.721-2.57c-0.869-1.46-2.459-2.43-4.279-2.43C154.92,84.76,154.84,84.76,154.77,84.77z"/>
		<path fill="none" stroke="#000000" stroke-width="3" stroke-miterlimit="10" d="M149.04,18.1c0,2.76,2.24,5,5,5
			c1.7,0,3.21-0.86,4.11-2.16c0.55-0.81,0.88-1.79,0.88-2.84c0-2.75-2.24-4.99-4.99-4.99C151.28,13.11,149.04,15.35,149.04,18.1z"/>
		<path fill="none" stroke="#000000" stroke-width="3" stroke-miterlimit="10" d="M272.56,19.06c0,0.92,0.25,1.77,0.681,2.51
			c0.859,1.49,2.479,2.49,4.319,2.49c2.761,0,4.99-2.24,4.99-5c0-2.75-2.229-4.99-4.99-4.99C274.8,14.07,272.56,16.31,272.56,19.06z
			"/>
		<path fill="none" stroke="#000000" stroke-width="3" stroke-miterlimit="10" d="M271.24,88.04c0,2.76,2.24,5,5,5
			c2.75,0,4.99-2.24,4.99-5c0-2.76-2.24-4.99-4.99-4.99c-2.391,0-4.4,1.68-4.891,3.92C271.28,87.32,271.24,87.67,271.24,88.04z"/>
	</g>
</g>
</svg>
